<?xml version="1.0" standalone="no"?>
<!DOCTYPE svg PUBLIC "-//W3C//DTD SVG 1.1//EN" "http://www.w3.org/Graphics/SVG/1.1/DTD/svg11.dtd" >
<!--
2013-9-30: Created.
-->
<svg>
<metadata>
Created by iconfont
</metadata>
<defs>

<font id="iconfont" horiz-adv-x="1024" >
  <font-face
    font-family="iconfont"
    font-weight="500"
    font-stretch="normal"
    units-per-em="1024"
    ascent="896"
    descent="-128"
  />
    <missing-glyph />
    
    <glyph glyph-name="gouwuche" unicode="&#58880;" d="M347.136 112.64q19.456 0 36.864-7.168t30.72-19.968 20.48-30.208 7.168-36.864-7.168-36.864-20.48-30.208-30.72-20.48-36.864-7.68q-20.48 0-37.376 7.68t-30.208 20.48-20.48 30.208-7.168 36.864 7.168 36.864 20.48 30.208 30.208 19.968 37.376 7.168zM773.12 110.592q19.456 0 37.376-7.168t30.72-19.968 20.48-30.208 7.68-36.864-7.68-36.864-20.48-30.208-30.72-20.48-37.376-7.68-36.864 7.68-30.208 20.48-20.48 30.208-7.68 36.864 7.68 36.864 20.48 30.208 30.208 19.968 36.864 7.168zM945.152 692.224q28.672 0 44.544-7.68t22.528-18.944 6.144-24.064-3.584-22.016-12.8-37.888-22.016-62.976-24.064-68.096-17.92-53.248q-13.312-40.96-33.792-56.832t-50.176-15.872l-34.816 0-66.56 0-87.04 0-95.232 0-253.952 0 15.36-92.16 516.096 0q49.152 0 49.152-41.984 0-20.48-9.728-35.328t-38.4-14.848l-49.152 0-95.232 0-117.76 0-119.808 0-98.304 0-56.32 0q-20.48 0-34.304 9.216t-23.04 24.064-14.848 32.256-8.704 32.768q-1.024 6.144-5.632 29.696t-11.264 58.88-14.848 78.848-16.384 87.552q-19.456 103.424-44.032 230.4l-76.8 0q-15.36 0-25.6 7.68t-16.896 18.432-9.216 23.04-2.56 22.528q0 20.48 13.824 33.792t37.376 13.312l22.528 0 20.48 0 25.6 0 34.816 0q20.48 0 32.768-6.144t19.456-15.36 10.24-19.456 5.12-17.408q2.048-8.192 4.096-23.04t4.096-30.208q3.072-18.432 6.144-38.912l700.416 0z"  horiz-adv-x="1024" />

    
    <glyph glyph-name="gerenzhongxin" unicode="&#59173;" d="M600.352-155.104l-179.68 0c-173.632 0-310.784 0-310.784 93.952l0 17.696c0 168.8 139.392 306.144 310.784 306.144l179.68 0c171.36 0 310.816-137.344 310.816-306.144l0-17.696C911.168-155.104 767.136-155.104 600.352-155.104zM420.672 198.688c-136.064 0-246.784-108.64-246.784-242.144l0-17.696c0-29.952 154.464-29.952 246.784-29.952l179.68 0c67.488 0 246.816 0 246.816 29.952l0 17.696c0 133.536-110.72 242.144-246.816 242.144L420.672 198.688zM501.536 269.44c-136.672 0-247.808 109.6-247.808 244.288s111.168 244.288 247.808 244.288 247.808-109.6 247.808-244.288S638.176 269.44 501.536 269.44zM317.728 513.728c0-99.392 82.464-180.288 183.808-180.288s183.808 80.864 183.808 180.288-82.464 180.288-183.808 180.288S317.728 613.12 317.728 513.728z"  horiz-adv-x="1024" />

    
    <glyph glyph-name="iconfontxiaogantanhao" unicode="&#58913;" d="M523.264 611.008l-22.016 0c-13.568 0-24.64-11.072-24.64-24.704l0-273.344c0-13.632 11.008-24.832 24.64-24.832l22.016 0c13.696 0 24.768 11.2 24.768 24.832l0 273.344C548.032 599.936 536.96 611.008 523.264 611.008zM512.064 860.608c-263.296 0-476.672-213.376-476.672-476.672 0-263.04 213.376-476.544 476.672-476.544 263.104 0 476.672 213.504 476.672 476.544C988.736 647.232 775.168 860.608 512.064 860.608zM507.712-33.216c-229.056 0-414.656 185.664-414.656 414.72 0 229.12 185.6 414.656 414.656 414.656 229.248 0 414.784-185.536 414.784-414.656C922.496 152.448 736.96-33.216 507.712-33.216zM521.856 201.728l-20.608 0c-13.568 0-24.64-11.072-24.64-24.96l0-25.92c0-13.696 11.008-24.896 24.64-24.896l20.608 0c13.696 0 24.768 11.2 24.768 24.896l0 25.92C546.624 190.72 535.616 201.728 521.856 201.728z"  horiz-adv-x="1024" />

    
    <glyph glyph-name="jifen" unicode="&#58934;" d="M874.032101 746.0561c-199.930533 199.930533-524.113669 199.930533-724.076201-0.031999s-199.930533-524.08167 0.031999-724.012203c199.962532-199.962532 524.113669-199.962532 724.044202-0.063998s199.962532 524.145668 0 724.1082zM628.31082 255.925502c-51.93458-51.93458-93.085455-106.205096-119.708727-154.747769-26.623272 48.542673-67.774147 102.813189-119.708727 154.747769s-106.205096 93.085455-154.747769 119.708727c48.542673 26.623272 102.813189 67.774147 154.747769 119.708727s93.085455 106.205096 119.708727 154.747769c26.623272-48.542673 67.774147-102.813189 119.708727-154.747769s106.205096-93.085455 154.747769-119.708727c-48.510674-26.623272-102.813189-67.806146-154.747769-119.708727z"  horiz-adv-x="1025" />

    
    <glyph glyph-name="dingdan1" unicode="&#58896;" d="M697.884 376.092h-372.209c-17.139 0-31.065-14.115-31.065-31.506 0-17.454 13.926-31.506 31.065-31.506h372.209c17.139 0 31.002 14.052 31.002 31.506 0 17.391-13.863 31.506-31.002 31.506v0 0zM697.884 187.121h-372.209c-17.139 0-31.065-14.115-31.065-31.506 0-17.454 13.926-31.506 31.065-31.506h372.209c17.139 0 31.002 14.052 31.002 31.506 0 17.391-13.863 31.506-31.002 31.506v0 0zM728.886 628.075c-34.215 0-62.003 28.229-62.003 63.012v125.96l186.073-188.972h-124.070zM857.366-12.689c0-34.782-52.111-57.593-86.389-57.593h-547.255c-34.215 0-57.593 22.81-57.593 57.593v777.688c0 34.782 23.377 57.593 57.593 57.593h374.477c-0.567-75.425 6.616-131.505 6.616-131.505 0-69.628 55.576-126.023 124.070-126.023l128.48-1.701v-576.051zM666.882 880.058v-0.882c-3.97 0-20.542 1.512-62.066 0.882h-372.209c-68.557 0-124.070-56.458-124.070-126.023v-755.949c0-69.565 55.513-125.96 124.070-125.96h558.345c68.494 0 124.070 56.395 124.070 125.96v629.989l-248.139 251.983z"  horiz-adv-x="1024" />

    
    <glyph glyph-name="gerenzhongxin1" unicode="&#58897;" d="M924.977217 209.755514 847.260182 209.755514c-14.390755 0-26.054399 11.43647-26.054399 25.559119 0 14.124695 11.663644 25.561166 26.054399 25.561166l77.717036 0c14.390755 0 26.054399-11.43647 26.054399-25.561166C951.031617 221.190961 939.367973 209.755514 924.977217 209.755514zM923.849534 469.407182 768.86981 469.407182c-14.111392 0-25.560142 11.435447-25.560142 25.560142 0 14.123672 11.44875 25.559119 25.560142 25.559119l154.9787 0c14.111392 0 25.560142-11.435447 25.560142-25.559119C949.408653 480.842629 937.960926 469.407182 923.849534 469.407182zM948.597171 365.140467c0-14.123672-11.44875-25.560142-25.560142-25.560142l-180.13259 0c-14.111392 0-25.560142 11.43647-25.560142 25.560142s11.44875 25.560142 25.560142 25.560142l180.13259 0C937.149445 390.700609 948.597171 379.264139 948.597171 365.140467zM624.843556 360.678852c-21.527292-15.544021-36.665061-22.542412-37.325094-51.930743-0.976234-43.156916 206.097962-92.501764 256.405741-126.579907 50.306756-34.079166 106.903775-70.568219 107.10639-129.014352 0.12689-37.172621-27.879977-76.070536-27.879977-76.070536s-249.558799-0.913812-389.184837-1.013073l0 0c-3.778046 0-8.15268 0-12.209066 0-4.031826 0-8.341992 0-12.133342 0l0 0c-141.705396 0.100284-413.629575 1.013073-413.629575 1.013073s-27.904537 38.897915-27.777647 76.070536c0.202615 58.446134 56.595996 94.935186 106.71344 129.014352 50.129724 34.079166 256.443603 83.422991 255.467369 126.579907-0.659009 29.388331-15.733333 36.386722-37.184901 51.930743-25.178449 18.255783-62.250786 90.066295-65.48341 177.698145-3.220345 87.302345 28.133757 270.351358 180.272783 268.475638 0 0.024559 0 0.075725 0 0.101307 0.291642 0 0.533143-0.051165 0.811482-0.051165s0.533143 0.051165 0.811482 0.051165c0-0.025583 0-0.076748 0-0.101307 152.697751 1.87572 184.176696-181.173293 180.944072-268.475638C687.322539 450.745147 650.112056 378.934634 624.843556 360.678852z"  horiz-adv-x="1024" />

    
    <glyph glyph-name="shangcheng" unicode="&#58914;" d="M772.554 661.715 251.409 661.715c-10.187 0-18.431-8.252-18.431-18.431 0-10.178 8.244-18.431 18.431-18.431l521.145 0c10.189 0 18.431 8.253 18.431 18.431C790.985 653.464 782.743 661.715 772.554 661.715zM820.539 773.203c-8.189 6.381-17.944 9.756-28.187 9.756L231.61 782.959c-10.224 0-19.961-3.366-28.059-9.658-7.488-5.723-13.195-13.624-16.579-22.902L83.766 542.49l0-4.32c0-99.804 74.355-180.998 165.736-180.998 53.045 0 101.174 27.178 132.114 72.231 30.94-45.053 79.069-72.231 132.13-72.231 51.712 0 99.284 26.242 130.368 69.747 31.084-43.505 78.638-69.747 130.348-69.747 91.4 0 165.773 81.194 165.773 180.998l0 4.32L837.009 750.361C833.662 759.649 827.956 767.559 820.539 773.203zM774.462 394.034c-47.624 0-91.201 29.257-113.718 76.352-0.359 0.765-1.008 1.251-1.458 1.935-0.702 1.062-1.349 2.086-2.267 3.006-0.936 0.934-1.998 1.618-3.096 2.33-0.665 0.424-1.134 1.045-1.854 1.395-0.288 0.144-0.612 0.109-0.899 0.225-1.26 0.531-2.556 0.746-3.887 0.981-1.063 0.19-2.088 0.468-3.15 0.468-1.117 0-2.197-0.288-3.331-0.494-1.296-0.243-2.52-0.442-3.727-0.945-0.306-0.125-0.628-0.09-0.918-0.234-0.737-0.35-1.205-0.971-1.852-1.404-1.117-0.702-2.179-1.395-3.115-2.339-0.899-0.901-1.548-1.917-2.232-2.971-0.468-0.693-1.115-1.187-1.476-1.952-22.515-47.095-66.11-76.352-113.736-76.352-49.082 0-93.27 30.544-115.319 79.718-0.359 0.818-1.043 1.368-1.511 2.107-0.721 1.159-1.368 2.33-2.359 3.31-0.934 0.937-2.07 1.557-3.166 2.269-0.774 0.494-1.369 1.205-2.232 1.592-0.162 0.072-0.361 0.046-0.522 0.118-1.261 0.522-2.612 0.656-3.942 0.89-1.045 0.181-2.051 0.531-3.078 0.531s-2.035-0.35-3.078-0.531c-1.333-0.234-2.682-0.369-3.942-0.89-0.162-0.072-0.359-0.046-0.522-0.118-0.864-0.387-1.458-1.099-2.232-1.602-1.098-0.702-2.232-1.323-3.168-2.26-0.99-0.98-1.637-2.151-2.357-3.31-0.468-0.739-1.152-1.288-1.511-2.107-22.049-49.174-66.237-79.718-115.303-79.718-69.8 0-126.82 62.395-128.818 139.925l99.804 201.059 0.971 2.322c0.667 1.998 1.981 4.77 4.591 6.759 1.708 1.322 3.581 1.998 5.56 1.998l560.742 0c2.016 0 3.836-0.649 5.688-2.097 2.503-1.908 3.799-4.626 4.447-6.561l100.831-203.479C901.321 456.419 844.28 394.034 774.462 394.034zM836.757 306.343c-10.187 0-18.431-8.253-18.431-18.431l0-252.006c0-3.859-1.421-7.459-3.941-10.087-2.466-2.52-5.634-3.915-8.965-3.915L218.579 21.904c-3.33 0-6.499 1.377-8.946 3.896-2.573 2.663-3.996 6.255-3.996 10.106L205.637 287.912c0 10.178-8.242 18.431-18.431 18.431-10.187 0-18.431-8.253-18.431-18.431l0-252.006c0-13.48 5.113-26.179 14.363-35.736 9.433-9.756 22.014-15.128 35.441-15.128L805.42-14.958c13.374 0 25.938 5.363 35.459 15.147 9.232 9.594 14.308 22.272 14.308 35.718L855.187 287.912C855.188 298.089 846.945 306.343 836.757 306.343z"  horiz-adv-x="1024" />

    
    <glyph glyph-name="add" unicode="&#58982;" d="M899.27 473.308h-297.695v297.695c0 32.912-26.686 59.539-59.538 59.539h-59.539c-32.912 0-59.539-26.627-59.539-59.539v-297.695h-297.695c-32.912 0-59.539-26.627-59.539-59.539v-59.539c0-32.876 26.627-59.538 59.539-59.538h297.695v-297.695c0-32.877 26.627-59.539 59.539-59.539h59.539c32.852 0 59.538 26.662 59.538 59.539v297.695h297.695c32.852 0 59.539 26.662 59.539 59.538v59.539c0.001 32.912-26.687 59.539-59.539 59.539z"  horiz-adv-x="1024" />

    
    <glyph glyph-name="bangongyongpin" unicode="&#59333;" d="M364.836571 755.565714h-84.553142c-32.329143 0-58.514286-26.185143-58.514286-58.514285V574.025143h93.769143c8.045714 0 14.628571-6.582857 14.628571-14.628572s-6.582857-14.628571-14.628571-14.628571h-93.769143v-105.325714h93.769143c8.045714 0 14.628571-6.582857 14.628571-14.628572s-6.582857-14.628571-14.628571-14.628571h-93.769143v-105.325714h93.769143c8.045714 0 14.628571-6.582857 14.628571-14.628572s-6.582857-14.628571-14.628571-14.628571h-93.769143v-210.505143c0-32.329143 26.185143-58.514286 58.514286-58.514286h84.553142c32.329143 0 58.514286 26.185143 58.514286 58.514286v631.954286c0 32.329143-26.185143 58.514286-58.514286 58.514285zM802.084571 441.490286l-9.069714 105.179428c-0.877714 10.532571-10.093714 18.139429-20.626286 17.261715-3.364571-0.292571-6.436571-1.462857-9.216-3.364572l-86.601142-60.416c-8.630857-5.997714-10.678857-17.846857-4.681143-26.477714 1.901714-2.779429 4.534857-4.973714 7.606857-6.436572l95.670857-44.763428c9.508571-4.388571 20.772571-0.292571 25.307429 9.216 1.316571 3.072 1.901714 6.436571 1.609142 9.801143zM774.875429 370.688c-2.633143 7.314286-8.045714 13.312-15.067429 16.530286l-97.572571 45.641143c-14.628571 6.875429-32.036571 0.585143-38.912-14.043429v-0.146286L476.306286 104.886857c-6.875429-14.628571-0.585143-32.036571 14.043428-38.912l97.572572-45.641143c14.628571-6.875429 32.036571-0.585143 38.912 14.043429L773.851429 348.306286c3.364571 7.021714 3.657143 15.067429 1.024 22.381714z m-87.625143-45.933714L607.085714 154.331429c-3.364571-7.314286-11.995429-10.678857-19.309714-7.314286s-10.678857 11.995429-7.314286 19.309714c0.146286 0.146286 0.146286 0.292571 0.292572 0.438857l80.164571 170.422857c3.364571 7.314286 11.995429 10.678857 19.309714 7.314286s10.678857-11.995429 7.314286-19.309714c-0.146286-0.146286-0.146286-0.292571-0.292571-0.438857z"  horiz-adv-x="1024" />

    
    <glyph glyph-name="weixin" unicode="&#58881;" d="M385.2052 275.20598299999995c-4.212104-2.124114-8.948011-3.341506-13.951239-3.341506-11.624828 0-21.750495 6.401242-27.053555 15.869444l-2.022966 4.446912-84.686406 185.816633c-0.90311 2.030191-1.473875 4.298802-1.473875 6.534902 0 8.554255 6.925045 15.500975 15.493751 15.500975 3.493228 0 6.693849-1.145143 9.280356-3.08141L380.696876 425.804949c7.326026-4.768419 16.039229-7.571672 25.409895-7.571672 5.59928 0 10.94569 1.040382 15.912793 2.857439L891.965357 630.232868c-84.249301 99.277047-222.97418 164.163675-379.952714 164.163675-256.905819 0-465.148473-173.541566-465.148473-387.621922 0-116.800988 62.650528-221.944635 160.702958-292.994084 7.871504-5.624567 13.030067-14.836287 13.030067-25.250948 0-3.449879-0.736938-6.603538-1.64366-9.883633-7.831768-29.217406-20.359706-76.002103-20.944921-78.194853-0.989808-3.670238-2.50342-7.484973-2.50342-11.332221 0-8.565093 6.925045-15.5082 15.493751-15.5082 3.388468 0 6.126696 1.257129 8.966073 2.893564l101.827428 58.777994c7.661983 4.432463 15.768296 7.167079 24.69102 7.167079 4.779257 0 9.367054-0.733325 13.683919-2.05909 47.510797-13.665856 98.771305-21.251978 151.841645-21.251978 256.880532 0 465.123186 173.545178 465.123186 387.636371 0 64.836054-19.192888 125.907946-52.983642 179.617688l-535.55852-309.231997L385.2052 275.20598299999995z"  horiz-adv-x="1024" />

    
    <glyph glyph-name="xiaoxi" unicode="&#58973;" d="M1051.767277 388.510197H634.198969c-51.192056 0-92.957713-35.516696-94.811219-79.965523v-257.725525c1.853505-44.431174 43.583858-79.965523 94.811219-79.965523h271.653295l180.319606-98.853626-46.655381 98.853626h12.268441c52.410074 0 94.899481 37.176024 94.899481 82.966436V305.473151c-0.052957 45.878674-42.418797 83.037046-94.917134 83.037046zM695.099864 153.450396a47.449741 47.449741 0 1 0 47.44974 47.414435 47.449741 47.449741 0 0 0-47.44974-47.414435z m147.892086 0a47.449741 47.449741 0 1 0 47.44974 47.414435 47.449741 47.449741 0 0 0-47.432088-47.414435z m147.892085 0a47.449741 47.449741 0 1 0 47.432088 47.414435 47.449741 47.449741 0 0 0-47.44974-47.414435zM867.970143 777.322691c0 65.543485-60.72437 118.677309-135.623645 118.677309h-596.652244C60.79498 896 0.07061 842.883828 0.07061 777.322691v-359.332931c0-65.543485 60.72437-118.677309 135.623644-118.677308h17.511214l-66.690893-141.219466 257.725526 141.219466h125.032184v96.41759a69.073971 69.073971 0 0 0 68.84449 68.84449H867.970143zM123.955386 555.219776a67.802996 67.802996 0 1 0 67.802996 67.802996 67.802996 67.802996 0 0 0-67.802996-67.802996z m211.334931 0a67.802996 67.802996 0 1 0 67.802996 67.802996 67.802996 67.802996 0 0 0-67.802996-67.802996z m211.334931 0a67.802996 67.802996 0 1 0 67.802996 67.802996 67.802996 67.802996 0 0 0-67.802996-67.802996z m188.510334 0a67.802996 67.802996 0 1 0 67.802996 67.802996 67.802996 67.802996 0 0 0-67.802996-67.802996z"  horiz-adv-x="1146" />

    
    <glyph glyph-name="xianshimima" unicode="&#58917;" d="M512 682.67c198.54 0 374.46-116.53 446.38-290.52a21.33 21.33 0 0 0 0-16.3C886.46 201.86 710.54 85.33 512 85.33S137.54 201.86 65.62 375.85a21.33 21.33 0 0 0 0 16.3C137.54 566.14 313.46 682.67 512 682.67z m0-42.67c-178.21 0-336.1-102.55-403.48-256C175.9 230.55 333.79 128 512 128s336.1 102.55 403.48 256C848.1 537.45 690.21 640 512 640zM512 234.67A149.33 149.33 0 1 0 661.33 384 149.33 149.33 0 0 0 512 234.67z m0 42.67A106.67 106.67 0 1 1 405.33 384 106.67 106.67 0 0 1 512 277.33z"  horiz-adv-x="1024" />

    
    <glyph glyph-name="yincangmima" unicode="&#58918;" d="M228.41 697.73a21.33 21.33 0 0 1-30.17-30.17l56.46-56.46c-83.6-50.76-150.66-126-189.08-219a21.33 21.33 0 0 1 0-16.33C138.56 199.36 313.78 85.32 512 85.32a496.64 496.64 0 0 1 217.89 50.61l65.69-65.69a21.33 21.33 0 1 1 30.17 30.17z m194.68-255l147.63-147.64a106.5 106.5 0 0 0-147.63 147.63zM512 128c-177.8 0-335.17 100.15-403.49 256 36.81 84 100.12 150.76 178 195.34L392.81 473c-18.68-24.93-30.15-55.54-30.15-89 0-82.33 67-149.33 149.33-149.33 33.47 0 64.08 11.47 89 30.15l96.21-96.21C640.44 143.1 578 128 512 128zM958.37 392.15C885.43 568.61 710.2 682.65 512 682.65a502.15 502.15 0 0 1-157.66-25.45l34.22-34.2A461 461 0 0 0 512 640c177.79 0 335.17-100.17 403.48-256-28.33-64.63-72.59-118.93-126.66-161.23l30.88-30.88C879.76 240 928 302.38 958.37 375.82a21.33 21.33 0 0 1 0 16.33zM617.66 393.89l40.47-40.47a149.27 149.27 0 0 1 3.2 30.56c0 82.33-67 149.33-149.33 149.33a149.19 149.19 0 0 1-30.57-3.2l40.47-40.47a106.11 106.11 0 0 0 95.76-95.75z"  horiz-adv-x="1024" />

    
    <glyph glyph-name="erweima" unicode="&#58883;" d="M62.996776 411.938306l423.162696 0L486.159472 835.099978 62.996776 835.099978 62.996776 411.938306zM168.788218 729.30956l211.580836 0 0-211.580836L168.788218 517.728724 168.788218 729.30956zM539.055193 835.099978l0-423.162696 423.162696 0L962.217888 835.099978 539.055193 835.099978zM856.426447 517.728724L644.845611 517.728724 644.845611 729.30956l211.580836 0L856.426447 517.728724zM221.682915 570.623421l105.790418 0L327.473333 676.414863 221.682915 676.414863 221.682915 570.623421zM62.996776-64.12011099999995l423.162696 0L486.159472 359.04258500000003 62.996776 359.04258500000003 62.996776-64.12011099999995zM168.788218 253.252167l211.580836 0 0-211.580836L168.788218 41.67133100000001 168.788218 253.252167zM803.531749 676.414863L697.740308 676.414863l0-105.790418 105.790418 0L803.530726 676.414863zM539.055193-64.12011099999995l105.790418 0L644.845611 41.67030799999998 539.055193 41.67030799999998 539.055193-64.12011099999995zM644.845611 253.252167l0-211.580836 105.790418 0L750.636029 253.252167 644.845611 253.252167zM856.426447 41.67030799999998L750.636029 41.67030799999998 750.636029-64.12011099999995l211.580836 0L962.216865 147.46174900000005 856.426447 147.46174900000005 856.426447 41.67030799999998zM856.426447 253.252167l105.790418 0L962.216865 359.04258500000003 856.426447 359.04258500000003 856.426447 253.252167zM539.055193 359.04258500000003l0-105.790418 105.790418 0L644.845611 359.04258500000003 539.055193 359.04258500000003zM221.682915 94.56602799999996l105.790418 0L327.473333 200.356446 221.682915 200.356446 221.682915 94.56602799999996z"  horiz-adv-x="1024" />

    
    <glyph glyph-name="wangshangyinhang" unicode="&#59203;" d="M982.8352 765.2352H41.1648C18.432 765.2352 0 744.8576 0 719.7696v-99.84h1024v99.84c0 25.088-18.432 45.4656-41.1648 45.4656zM435.712 329.216H514.048v82.7392h-78.336v-82.7392zM129.2288 140.5952h386.1504v82.7392H129.2288v-82.7392z m255.5904 271.36H129.2288v-82.7392h255.6928l-0.1024 82.7392zM1024 546.816v-500.5312c0-24.064-18.432-43.52-41.1648-43.52H41.1648C18.432 2.8672 0 22.3232 0 46.2848V546.816h1024z m0 0"  horiz-adv-x="1024" />

    
    <glyph glyph-name="tubiaoku-" unicode="&#58916;" d="M264.080184 327.178402c-10.646081-8.563614-22.046525-21.069041-25.361472-36.963789-4.504929-21.717155-0.934985-48.895474 20.017182-70.21951 25.382722-25.850215 63.95086-32.926352 80.610596-34.137584 45.251157-3.272448 93.487891 19.167196 129.846064 44.762415 14.247899 10.05109 38.653137 30.23827 61.974642 61.390276-52.27417 26.987072-117.510635 56.832223-187.273278 53.921019-35.635684-1.508726-61.156529-8.892984-79.813734-18.752827z m662.830107-119.338106a448.367885 448.367885 0 0 1 35.869431 176.149079c0 248.557306-202.201166 450.779722-450.769097 450.779722-248.578555 0-450.779722-202.222416-450.779722-450.779722 0-248.56793 202.201166-450.769097 450.779722-450.769097 150.00137 0 283.045508 73.704455 365.047957 186.752662-77.476271 38.515014-205.165494 101.892133-283.810496 140.247774-37.537529-42.786196-93.020399-85.668016-155.69628-104.325219-39.375625-11.697939-74.873187-16.170993-111.985722-8.584864-36.751292 7.522381-63.823362 24.734607-79.590612 41.978709-8.032373 8.79736-17.265351 19.985308-23.94837 33.298221 0.626865-1.689348 1.051858-2.688082 1.051858-2.688082s-3.835564 6.61927-6.778643 17.169728a75.882546 75.882546 0 0 0-2.943078 15.979746 81.981199 81.981199 0 0 0-0.180622 11.485443 82.873685 82.873685 0 0 0 1.466227 21.185914c3.686816 17.817842 11.294196 38.578763 30.960758 57.841582 43.200564 42.297454 101.052771 44.571168 131.014796 44.390545 44.390546-0.254996 121.537446-19.677188 186.487041-42.648073 17.98784 38.313142 29.537031 79.303742 36.974413 106.620183h-270.072589v29.207662h138.685924v58.404698h-167.882961v29.207661h167.882961v58.383449c0 8.021748 1.5831 14.609143 14.598519 14.609143h65.693332v-72.981967h182.502729v-29.207661h-182.502729v-58.404699h145.995808s-14.662267-81.726203-60.49779-162.283674c101.743385-36.347548 244.881114-92.31916 292.427235-111.018863z m0 0"  horiz-adv-x="1024" />

    
    <glyph glyph-name="plan" unicode="&#58884;" d="M873.323256 603.454741a36.636852 36.636852 0 0 1-35.812523-36.636852v-621.544186H135.731843V822.726297h379.008228a36.636852 36.636852 0 0 1 35.904115 36.636851 36.636852 36.636852 0 0 1-35.904115 36.636852H135.731843A72.632558 72.632558 0 0 1 64.015206 822.726297v-877.452594a72.72415 72.72415 0 0 1 71.716637-73.273703h701.77889a73.273703 73.273703 0 0 1 71.716637 73.273703V566.909481a36.636852 36.636852 0 0 1-35.904114 36.636852zM243.261002 603.454741H586.09034a36.636852 36.636852 0 0 0 35.812522-36.636852 36.636852 36.636852 0 0 0-35.812522-36.636851H243.261002a36.636852 36.636852 0 0 0-35.812523 36.636851 36.636852 36.636852 0 0 0 35.812523 36.636852z m0-219.82111h414.912343a36.636852 36.636852 0 0 0 35.812523-36.636851 36.636852 36.636852 0 0 0-35.812523-36.636852h-414.912343a36.636852 36.636852 0 0 0-35.812523 36.636852 36.636852 36.636852 0 0 0 35.812523 37.094812z m0-219.821109H729.889982a36.636852 36.636852 0 0 0 35.812522-36.636851 36.636852 36.636852 0 0 0-35.812522-36.636852H243.261002a36.636852 36.636852 0 0 0-35.812523 36.636852 36.636852 36.636852 0 0 0 35.812523 37.461181zM586.09034 786.089445a49.91771 49.91771 0 0 0 71.716637 0l143.799642-146.547406-40.666905-41.399642a43.414669 43.414669 0 0 0-62.191056 0L586.09034 712.815742a52.390698 52.390698 0 0 0 0 73.273703zM719.356887 702.465832L873.323256 859.363148a50.100894 50.100894 0 0 0 71.716637 0 52.573882 52.573882 0 0 0 0-73.273703L791.073524 629.283721a35.446154 35.446154 0 0 0-50.650447 0l-21.06619 21.432558a37.277996 37.277996 0 0 0 0 51.749553z"  horiz-adv-x="1024" />

    
    <glyph glyph-name="ICon-" unicode="&#58904;" d="M971.669333-32.32000000000005L762.88 176.469333c131.637333 162.282667 113.141333 399.232-42.101333 539.114667C565.557333 855.488 327.957333 849.312 180.202667 701.557333 32.437333 553.781333 26.250667 316.192 166.154667 160.96000000000004c139.893333-155.232 376.842667-173.728 539.136-42.090667L914.069333-89.91999999999996a40.725333 40.725333 0 1 1 57.6 57.6zM684.341333 198.06933300000003a319.765333 319.765333 0 0 0-101.450666-65.450666v-2.624c-162.176-66.282667-347.477333 10.346667-415.477334 171.797333-68 161.472 6.677333 347.573333 167.413334 417.269333 141.28 61.813333 306.549333 13.621333 392.458666-114.442666 85.92-128.064 67.829333-299.274667-42.944-406.549334z"  horiz-adv-x="1024" />

    
    <glyph glyph-name="youhuiquan" unicode="&#58885;" d="M640.186778 441.06752h-79.24736l88.43264 97.11616a15.22688 15.22688 0 0 1 0 20.00896l-18.20672 20.0704a12.0832 12.0832 0 0 1-18.25792 0l-101.35552-111.36-100.23936 110.03904a12.02176 12.02176 0 0 1-18.13504 0l-18.06336-19.8656a14.99136 14.99136 0 0 1 0-19.8656l87.53152-96.1536h-78.29504a14.2336 14.2336 0 0 1-14.24384-14.24384v-28.6208c0-7.91552 6.38976-14.30528 14.24384-14.30528h99.47136v-57.09824h-99.47136c-7.86432 0-14.24384-6.37952-14.24384-14.24384v-28.6208c0-7.86432 6.38976-14.26432 14.24384-14.26432h99.47136v-71.34208c0-7.84384 6.4-14.24384 14.24384-14.24384h28.416c7.86432 0 14.24384 6.37952 14.24384 14.24384v71.49568h99.47136a14.2336 14.2336 0 0 1 14.25408 14.24384v28.53888a14.2336 14.2336 0 0 1-14.1824 14.31552h-99.54304v57.02656h99.47136c7.87456 0 14.25408 6.37952 14.25408 14.24384v28.55936a14.2336 14.2336 0 0 1-14.1824 14.30528l-0.08192 0.02048zM967.170458 754.9952H57.346458a56.95488 56.95488 0 0 1-56.89344-57.0368v-162.06848s-6.2464-33.34144 27.648-41.54368l3.06176-0.83968c10.42432-3.1232 46.05952-16.04608 67.3792-51.88608l0.07168-0.14336c0.99328-1.64864 1.92512-3.34848 2.77504-5.0688l1.59744-3.13344 0.69632-1.46432 1.52576-3.47136a113.92 113.92 0 0 0-12.6464-111.1552c-17.99168-24.44288-42.37312-36.11648-55.36768-40.91904-2.99008-0.96256-5.96992-1.93536-9.03168-2.70336v-0.14336c-33.96608-8.20224-27.648-41.54368-27.648-41.54368v-161.86368a56.96512 56.96512 0 0 1 56.82176-57.0368h909.75232a56.97536 56.97536 0 0 1 56.832 57.0368V241.2544c0 5.12-1.39264 10.1376-4.03456 14.52032a34.37568 34.37568 0 0 1-23.7568 17.50016l0.07168 0.27648a110.62272 110.62272 0 0 0-17.09056 5.8368 113.22368 113.22368 0 0 0-68.90496 104.54016c0 32.9216 13.88544 62.38208 36.18816 83.15904a127.27296 127.27296 0 0 0 40.91904 24.58624c2.97984 1.04448 5.96992 1.87392 8.96 2.7136v0.1024a34.06848 34.06848 0 0 1 24.17664 18.47296c2.31424 4.21888 3.5328 8.94976 3.54304 13.75232V697.88672a56.95488 56.95488 0 0 1-56.82176 57.10848z m0-656.39424a28.47744 28.47744 0 0 0-28.40576-28.55936H85.834138a28.48768 28.48768 0 0 0-28.416 28.55936V222.72c89.06752 31.7952 135.49568 129.78176 103.70048 218.84928a171.25376 171.25376 0 0 1-103.70048 103.70048V669.40928a28.47744 28.47744 0 0 0 28.416 28.54912h852.93056a28.4672 28.4672 0 0 0 28.40576-28.54912v-124.13952c-89.05728-31.7952-135.48544-129.77152-103.69024-218.84928a171.29472 171.29472 0 0 1 103.69024-103.70048v-124.11904z"  horiz-adv-x="1024" />

    
    <glyph glyph-name="zhifu-jingdong" unicode="&#58920;" d="M547.84 614.4c-15.36 0-20.48-10.24-20.48-20.48s10.24-20.48 20.48-20.48c15.36 0 20.48 10.24 20.48 20.48 5.12 10.24-5.12 20.48-20.48 20.48zM855.04 665.6c-15.36 5.12-30.72 10.24-51.2 10.24h-25.6c-15.36 0-25.6-5.12-35.84-15.36-10.24-10.24-10.24-20.48 0-25.6 5.12 0 10.24-5.12 15.36-5.12 20.48-5.12 46.08-5.12 66.56 0 10.24 0 20.48 5.12 30.72 10.24 10.24-5.12 15.36 0 15.36 10.24 0 5.12-10.24 10.24-15.36 15.36zM849.92 890.88H163.84C71.68 890.88 0 819.2 0 727.04v-686.08c0-87.04 71.68-163.84 163.84-163.84h691.2c87.04 0 163.84 71.68 163.84 163.84V727.04C1013.76 819.2 942.08 890.88 849.92 890.88zM634.88 76.8c-5.12 0-5.12 5.12 0 0-10.24 20.48-10.24 35.84-15.36 56.32 0 5.12-5.12 10.24-10.24 20.48s-15.36 10.24-20.48 0c-5.12-5.12-10.24-15.36-15.36-25.6-5.12-15.36-10.24-25.6-15.36-40.96 0-5.12-5.12-10.24-10.24-10.24h-10.24c0 25.6 0 46.08 5.12 71.68-5.12-5.12-10.24-5.12-15.36-5.12-5.12-5.12-15.36-10.24-20.48-20.48-10.24-10.24-25.6-25.6-35.84-40.96-10.24-5.12-15.36-5.12-25.6-5.12l46.08 76.8c-15.36 5.12-30.72 10.24-35.84 25.6-5.12 10.24-5.12 20.48 0 30.72 0-5.12 0-5.12 5.12-10.24 5.12-15.36 20.48-25.6 35.84-20.48 5.12 0 10.24 5.12 10.24 10.24 15.36 25.6 30.72 51.2 46.08 71.68 5.12 5.12 5.12 5.12 10.24 5.12 25.6-5.12 46.08-5.12 71.68 0 5.12 0 10.24 5.12 15.36 5.12V76.8h-15.36z m271.36 486.4c-5.12-30.72-15.36-56.32-25.6-81.92-5.12-5.12-10.24-10.24-20.48-15.36-15.36-10.24-35.84-15.36-56.32-20.48-56.32-10.24-112.64-5.12-168.96 15.36-30.72 10.24-56.32 30.72-81.92 56.32l-5.12 5.12c-5.12 0-10.24 5.12-10.24 0 0 0-5.12-5.12-5.12-10.24s5.12-5.12 5.12-10.24c35.84-35.84 76.8-61.44 128-71.68 56.32-15.36 117.76-15.36 174.08 5.12 5.12 0 5.12 0 10.24 5.12 5.12 0 5.12 5.12 10.24 5.12-5.12-10.24-10.24-20.48-20.48-25.6-46.08-61.44-102.4-102.4-174.08-122.88-46.08-15.36-92.16-10.24-138.24 0-76.8 20.48-148.48 51.2-209.92 102.4-20.48 15.36-35.84 35.84-51.2 56.32 0 0-5.12 10.24-5.12 20.48-5.12 5.12-5.12 10.24-15.36 15.36 0-15.36 5.12-30.72 5.12-51.2 0-30.72-10.24-56.32-35.84-71.68-20.48-15.36-40.96-25.6-61.44-30.72-25.6-5.12-51.2 15.36-40.96 40.96l15.36 46.08c20.48 35.84 30.72 71.68 40.96 107.52 0 5.12 5.12 15.36 5.12 20.48 5.12 10.24 20.48 15.36 30.72 10.24 10.24 0 15.36-5.12 25.6-10.24s25.6-15.36 35.84-20.48c5.12 10.24 15.36 15.36 20.48 25.6 25.6 25.6 61.44 46.08 97.28 61.44 56.32 25.6 112.64 46.08 168.96 56.32 25.6 5.12 56.32 10.24 81.92 10.24 35.84 5.12 66.56 5.12 102.4 5.12 40.96 0 87.04-5.12 122.88-25.6 20.48-10.24 40.96-25.6 40.96-51.2 5.12-15.36 5.12-35.84 5.12-51.2z"  horiz-adv-x="1024" />

    
    <glyph glyph-name="suning" unicode="&#59011;" d="M984.2688 448.7168L888.832 543.9488v134.7584c0 48.128-39.1168 87.2448-87.2448 87.2448h-134.7584L571.5968 861.184c-16.384 16.384-37.6832 24.9856-59.1872 25.6h-4.9152c-21.504-0.6144-42.8032-9.216-59.1872-25.6l-95.232-95.232h-134.7584C169.984 765.952 131.072 726.8352 131.072 678.7072v-134.7584l-95.232-95.232C18.8416 431.7184 10.24 409.3952 10.24 386.8672c0-22.3232 8.6016-44.6464 25.6-61.6448L131.072 229.9904V95.232c0-48.128 39.1168-87.2448 87.2448-87.2448h134.7584l95.232-95.232c34.2016-33.9968 89.2928-33.9968 123.4944 0l95.232 95.232h134.7584c48.128 0 87.2448 39.1168 87.2448 87.2448v134.7584l95.232 95.232c33.9968 33.9968 33.9968 89.2928 0 123.4944zM657.408 316.8256c-8.8064 73.9328-71.68 131.2768-148.0704 131.2768-76.1856 0-139.0592-57.344-147.8656-131.2768-61.6448-1.8432-111.2064-52.6336-111.2064-114.688 0-63.488 51.4048-114.688 114.8928-114.688h289.792c63.488 0 114.688 51.4048 114.688 114.688 0 62.464-49.9712 113.2544-112.2304 114.688zM628.3264 452.1984c0-20.48 16.5888-37.0688 37.0688-37.0688 20.48 0 37.0688 16.5888 37.0688 37.0688 0 20.48-16.5888 37.0688-37.0688 37.0688-20.48 0-37.0688-16.5888-37.0688-37.0688zM316.2112 452.1984c0-20.48 16.5888-37.0688 37.0688-37.0688 20.48 0 37.0688 16.5888 37.0688 37.0688 0 20.48-16.5888 37.0688-37.0688 37.0688-20.48 0-37.0688-16.5888-37.0688-37.0688zM599.6544 316.8256h-180.6336c-16.7936 0-31.744-22.7328-7.3728-40.7552l59.5968-44.6464s16.384-11.8784 37.888-11.6736c21.504-0.2048 37.888 11.6736 37.888 11.6736l59.5968 44.6464c24.576 18.0224 9.8304 40.7552-6.9632 40.7552z"  horiz-adv-x="1024" />

    
    <glyph glyph-name="yanxuan" unicode="&#59016;" d="M813.2608-115.5072H210.7392c-108.9536 0-198.0416 89.088-198.0416 198.0416V685.2608c0 108.9536 89.088 198.0416 198.0416 198.0416h602.7264c108.9536 0 198.0416-89.088 198.0416-198.0416v-602.7264c0-108.9536-89.088-198.0416-198.2464-198.0416zM474.3168 444.8256c-0.4096 8.3968-2.4576 12.4928-6.5536 12.4928-9.4208-1.4336-34.816-6.144-76.3904-14.5408-14.5408-1.2288-29.2864-3.2768-44.2368-5.9392 0.6144 9.8304 1.2288 18.432 1.4336 26.2144 3.2768 1.4336 8.8064 3.2768 16.1792 6.144 25.1904 9.4208 41.7792 16.1792 49.7664 20.0704 8.8064 3.072 15.36 5.9392 19.6608 8.6016 6.3488 2.2528 9.6256 5.5296 9.6256 9.6256 0 1.4336-1.4336 2.6624-4.096 4.096-3.072 1.6384-5.9392 3.8912-8.6016 6.5536-6.7584 3.6864-10.4448 6.144-11.0592 7.5776h-2.4576c-9.4208-12.0832-32.1536-27.4432-68.4032-46.2848 1.2288 25.8048 2.2528 42.5984 3.072 50.3808 0 2.6624-0.8192 4.9152-2.4576 6.5536-6.7584 0-12.4928 0.6144-17.2032 2.048 14.1312 1.4336 29.696 2.6624 46.8992 4.096 17.8176 1.4336 35.0208 2.4576 51.8144 3.4816 4.096-1.024 7.3728-1.4336 10.0352-1.4336 0.6144 0 1.024 1.2288 1.024 3.4816-1.024 4.096-1.8432 8.8064-2.4576 14.5408-0.4096 7.7824-1.6384 11.4688-4.096 11.4688-3.2768 0-21.7088-2.6624-55.296-7.9872-33.1776-5.12-60.6208-9.0112-82.5344-12.0832-19.8656-4.096-48.7424-7.168-86.6304-9.6256-12.4928-1.4336-23.9616-2.6624-34.6112-4.096h-26.624c0-2.6624 0.8192-5.5296 2.4576-8.6016 1.024-4.096 2.2528-9.216 3.4816-15.5648 0.6144-4.3008 1.8432-6.5536 3.4816-6.5536 3.072 0 17.6128 3.4816 43.8272 10.6496 13.1072 2.2528 25.8048 4.3008 38.2976 5.5296 0.4096-1.2288 0.6144-2.4576 1.024-3.4816 1.024-11.0592 1.8432-21.9136 2.4576-32.768l-5.5296 4.5056c-22.528-10.6496-40.1408-19.0464-52.8384-24.576-17.2032-6.7584-26.8288-10.0352-29.2864-10.0352-1.024-1.024-2.8672-1.4336-5.5296-1.4336l-1.024-2.048c1.2288-1.4336 3.4816-3.2768 6.5536-6.144 3.072-4.3008 5.7344-7.7824 7.9872-10.6496 1.024-1.4336 2.048-2.4576 3.072-3.4816h4.096c6.3488 0 19.8656 7.3728 40.7552 22.1184 11.6736 9.4208 22.3232 19.2512 31.744 29.696 1.4336-21.0944 2.048-42.5984 2.048-64.512-18.0224-1.4336-21.2992-1.2288-42.8032-3.8912-16.384-2.2528-28.8768-3.4816-37.2736-3.4816-13.5168-1.4336-26.2144-2.048-38.2976-2.048l-1.024-2.048c1.4336-3.072 3.2768-7.7824 5.5296-14.5408 3.6864-9.4208 6.144-14.1312 7.5776-14.1312 3.6864 0 10.6496 1.4336 20.6848 4.5056 8.3968 2.6624 22.7328 5.9392 43.2128 9.6256 21.504 4.096 28.672 6.144 54.8864 10.4448 52.6336 7.7824 110.592 12.9024 173.6704 15.5648 24.1664 0 39.3216-0.6144 45.8752-2.048 1.024 0 1.4336 0.6144 1.4336 2.048-2.6624 5.3248-4.7104 12.6976-6.3488 21.9136m-150.528-11.6736c-5.9392 0-12.4928-0.6144-19.0464-2.048-10.4448-1.4336-21.9136-2.6624-34.2016-4.096v79.872c-0.4096 6.9632-0.4096 11.8784-0.4096 14.5408 0 2.2528-1.2288 4.096-3.4816 5.5296-2.4576 0-5.3248 0.6144-9.0112 2.048 11.6736 1.2288 23.1424 2.6624 34.2016 4.096 9.8304 1.6384 20.48 3.2768 32.1536 4.5056v-104.448zM216.6784 373.1456c-1.6384 1.8432-2.8672 2.2528-4.096 3.6864-4.7104 4.7104-9.4208 6.3488-10.8544 10.4448l-3.6864-0.6144c-0.6144-2.6624-1.024-4.5056-1.4336-5.9392-2.048-8.192-2.2528-10.4448-19.0464-50.5856-9.6256-21.0944-19.456-40.1408-29.2864-57.1392-20.48-33.3824-41.7792-58.5728-63.6928-75.776-0.4096-1.2288 0.8192-2.2528 3.4816-2.8672 20.2752-0.6144 40.3456 13.7216 62.8736 40.3456 33.792 39.936 63.0784 107.3152 64.512 109.7728 4.5056 7.168 9.216 13.9264 10.4448 19.2512 0.2048 1.024 0.2048 1.4336-0.2048 1.6384-3.072 3.8912-4.5056 3.6864-9.0112 7.7824M743.8336 376.832c-3.2768 2.048-5.5296 3.8912-7.7824 5.7344-1.4336 1.2288-2.8672 1.6384-3.8912 2.2528-2.2528 1.4336-5.12 2.8672-7.3728 2.8672-1.024 0-1.6384-3.4816-1.6384-3.4816 0-4.7104 0-14.336-9.6256-36.4544-5.9392-13.9264-11.0592-19.0464-18.432-26.4192-15.5648-15.9744-26.624-17.408-46.8992-29.2864 0-2.4576 1.4336-3.6864 4.5056-3.6864 22.528 1.2288 39.3216 3.2768 51.8144 13.1072 14.336 11.6736 21.504 19.8656 32.5632 44.6464 9.4208 16.384 11.6736 21.504 11.6736 24.576-0.2048 2.2528-1.8432 4.3008-4.9152 6.144M909.9264 303.9232c-3.4816 14.336-6.3488 27.4432-8.3968 39.3216-1.024 1.024-2.048 1.6384-2.8672 1.6384-0.6144-15.36-1.4336-29.0816-2.4576-40.96-0.6144-8.3968-2.048-14.7456-4.5056-19.456-1.6384-2.2528-5.3248-3.6864-10.8544-4.9152-5.9392-1.8432-16.9984-2.8672-33.1776-2.8672-31.744 1.024-48.128 11.264-48.9472 30.3104 1.8432 27.2384 5.3248 52.6336 10.0352 75.9808-0.8192 1.024-1.4336 1.6384-2.048 1.6384-5.9392 2.048-11.6736 3.6864-17.2032 4.7104-3.072 0.4096-3.072 1.2288-5.3248 1.2288-1.2288 0-3.2768-1.2288-2.6624-3.8912 0.4096-3.8912 0.6144-6.7584 0.6144-11.6736-2.4576-40.96-3.6864-65.7408-3.6864-74.5472 0-28.8768 29.0816-43.2128 87.4496-43.2128 35.0208 0 52.6336 3.6864 52.6336 10.8544-0.8192 6.9632-3.6864 18.8416-8.6016 35.84M832.512 404.8896c16.7936 1.024 32.768 0.6144 48.128 2.048 3.2768-1.4336 6.144-2.048 8.3968-2.048 0.8192 0 1.2288 1.2288 1.2288 3.6864-1.024 2.8672-1.8432 8.192-2.4576 12.4928-0.2048 7.5776-1.4336 11.264-3.6864 11.264-2.8672 0-20.0704-2.048-50.9952-6.144-21.9136-2.4576-45.2608-3.8912-61.6448-4.9152 0.6144 22.7328 1.2288 42.5984 2.048 61.2352 11.0592 0.8192 28.4672 2.048 43.6224 3.2768 10.24 1.024 20.0704 1.6384 29.4912 1.6384 3.2768 0 6.144-1.4336 8.3968-1.024 1.2288 0.2048 1.024 1.6384 0.8192 2.6624-1.024 3.4816-1.8432 7.3728-2.4576 11.6736-0.2048 6.144-1.4336 10.0352-3.2768 11.264-1.8432 0-12.4928-2.2528-31.9488-6.9632-15.36-2.2528-32.768-3.8912-43.8272-5.7344 0.6144 14.7456 1.024 25.6 1.2288 32.3584 0.6144 5.12 1.2288 11.6736 2.048 19.456 1.4336 2.8672 2.2528 7.3728 2.4576 12.9024-0.6144 1.024-1.4336 2.2528-2.8672 3.2768-1.4336 0-3.4816 0.6144-6.5536 1.6384-11.0592 1.8432-18.0224 3.2768-21.0944 4.5056l-1.2288-1.6384c1.8432-7.5776 3.2768-21.504 4.5056-41.5744 0-11.8784-0.2048-23.1424-0.4096-33.9968-9.6256-1.024-10.4448-2.6624-24.3712-4.096-7.3728-1.024-13.7216-1.6384-19.6608-2.6624h-0.4096c2.8672 6.7584 5.3248 12.0832 6.9632 16.1792 2.6624 6.7584 4.7104 11.264 6.144 13.312 2.4576 2.8672 3.6864 4.9152 3.6864 6.144 0 2.2528-2.048 3.2768-6.144 3.2768-4.9152 2.4576-9.0112 4.7104-12.0832 6.9632-6.5536 3.072-10.24 4.9152-11.264 6.144-0.6144 0-1.2288-0.6144-2.048-1.6384 0.8192-1.8432 1.2288-3.8912 1.2288-6.144 0-14.1312-4.096-32.3584-12.4928-55.0912-2.2528-9.6256-11.6736-26.4192-28.2624-50.176 0-1.024 1.024-1.6384 3.2768-1.6384h4.9152c5.3248 2.2528 15.7696 13.9264 31.1296 35.6352 1.6384 3.2768 3.2768 6.3488 4.9152 9.216 0.6144-2.8672 1.4336-4.5056 2.4576-4.5056 1.6384 0 9.8304 1.4336 24.9856 5.5296 13.7216 2.2528 15.36 4.5056 27.648 6.7584v-60.416c-18.0224-2.2528-32.1536-4.7104-66.3552-6.5536-11.264-1.024-18.2272-1.2288-28.4672-1.8432-14.336-0.8192-22.3232-0.6144-24.3712-1.6384 0-1.4336 0.6144-3.6864 1.6384-6.9632 0.8192-2.2528 1.8432-5.7344 3.2768-10.8544 0.6144-4.5056 1.4336-6.9632 2.8672-6.9632 2.8672 0 12.4928 2.2528 36.4544 6.9632 15.1552 2.2528 25.6 3.072 32.768 4.096s14.1312 1.4336 19.456 2.048c10.24 1.024 16.9984 2.2528 26.4192 3.2768 7.168 1.024 59.1872 4.3008 75.776 4.3008M583.8848 527.9744c7.9872 13.5168 11.264 21.2992 11.8784 29.9008l3.6864 1.8432c3.4816-1.8432 4.9152-3.072 11.6736-4.5056 4.9152-1.024 8.8064-1.6384 11.6736-2.2528 3.2768-0.6144 5.3248-1.6384 6.144-3.2768 1.2288-2.6624 0.6144-5.3248-2.4576-7.9872-6.7584-8.6016-15.1552-17.2032-25.3952-26.4192-9.216-8.6016-20.6848-17.6128-33.9968-27.2384-2.2528 0.8192-4.5056 1.8432-6.5536 3.072 5.7344 7.9872 13.5168 20.0704 23.3472 36.864M748.544 252.928c-18.0224 3.4816-59.392 10.6496-65.536 12.0832-38.2976 7.7824-62.2592 12.4928-79.0528 15.36 3.2768 2.6624 13.7216 17.8176 19.0464 24.7808 6.3488 7.7824 9.6256 14.336 9.6256 20.0704 0 5.12-4.3008 10.24-13.1072 15.5648-5.9392 4.3008-13.1072 9.6256-21.0944 16.1792-9.0112 5.7344-13.5168 9.8304-13.5168 12.4928 0 3.6864 2.8672 9.6256 8.6016 18.0224 1.6384 3.4816 6.5536 13.1072 6.5536 13.1072 11.8784 23.9616 22.9376 37.2736 28.2624 41.1648 1.6384 0 2.4576 0.8192 2.4576 2.8672 0 1.024-3.8912 5.12-12.0832 12.0832-6.3488 6.3488-10.4448 10.0352-12.0832 11.264H604.16c-1.2288-2.048-2.048-4.3008-3.072-6.5536-30.1056-4.5056-15.9744-2.4576-43.8272-5.9392-17.6128-2.2528-9.8304-1.2288-26.0096-1.024-2.2528 0-3.2768-1.024-3.2768-3.2768 1.6384-3.4816 3.2768-6.9632 5.12-10.24 2.048-6.5536 3.4816-9.6256 4.3008-9.8304 2.2528-0.6144 6.5536 2.2528 31.3344 5.9392 17.408 2.6624 20.6848 2.8672 25.3952 2.8672-5.12-15.9744-12.6976-25.6-19.0464-39.7312 0 0-5.3248-12.4928-10.0352-18.2272-9.8304-5.3248-10.6496-11.8784-10.6496-15.5648 0-4.3008 3.2768-7.7824 10.0352-10.6496 6.3488-2.6624 9.8304-5.5296 16.5888-10.4448 8.3968-6.9632 18.6368-13.9264 23.552-26.0096 0-4.5056-6.144-12.9024-13.5168-21.2992-1.6384-1.8432-8.192-9.216-10.4448-11.264-3.6864-3.2768-7.7824-6.144-10.0352-7.5776-13.5168-7.7824-21.9136-15.5648-33.9968-16.9984-2.6624-1.6384-4.096-3.8912-4.096-6.5536 5.7344-5.7344 7.7824-8.192 13.9264-16.5888 4.3008-8.6016 7.3728-13.312 10.0352-13.312 2.2528 0 6.144 3.2768 11.6736 9.6256 16.1792 20.48 20.6848 25.1904 26.4192 25.1904 8.8064 0 55.7056-8.8064 140.9024-26.624 31.1296-6.7584 43.2128-9.0112 72.9088-20.2752 22.7328-9.0112 37.888-13.5168 45.2608-13.5168 6.144 1.4336 12.6976 3.2768 20.0704 5.5296 6.3488 1.4336 15.36 4.096 27.2384 7.9872 23.7568 8.3968 35.6352 13.1072 35.6352 14.1312 2.048 1.4336 3.072 3.2768 3.072 6.144-41.7792 1.6384-71.2704 0.2048-123.904 6.9632-26.2144 3.6864-43.6224 7.7824-67.1744 12.0832"  horiz-adv-x="1024" />

    
    <glyph glyph-name="prevpage" unicode="&#58906;" d="M750.38276 93.00241600000004L750.38276 93.00241600000004c8.848529-8.861832 15.504112-18.832927 19.91763201-29.913287 4.437056-11.067057 6.655584-22.47180399 6.65558399-34.175357 0-11.715833-2.218528-23.269983-6.65558399-34.662451s-11.06808-21.511943-19.91763201-30.374798c-17.749246-17.723663-38.937824-26.585495-63.641459-26.585495-24.653493 0-45.89221301 8.861832-63.591317 26.585495l-352.232227 355.086228c-8.87411101 7.603165-15.205307 17.249873-18.995633 28.966729-3.813862 11.704576-5.384637 23.8942-4.735861 36.54431099 0.597611 12.663414 3.464915 25.152866 8.525164 37.49189201 5.060249 12.364609 12.014638 22.959921 20.889773 31.80845L623.149984 803.1636149999999c17.723663 18.371416 38.937824 27.545356 63.591317 27.545356 24.704658 0 45.893236-9.17394 63.641459-27.545356 8.848529-8.849552 15.504112-18.821671 19.91763201-29.888727 4.437056-11.06808 6.65558399-22.48613 6.65558399-34.17638 0-11.715833-2.218528-23.282263-6.655584-34.649148-4.41352-11.392468-11.06808-21.537526-19.917632-30.41266l-286.74677-290.511513L750.38276 93.00241600000004 750.38276 93.00241600000004zM750.38276 93.00241600000004"  horiz-adv-x="1024" />

    
    <glyph glyph-name="xiala" unicode="&#58886;" d="M919.8 514.9L555.2 116.2a57.377 57.377 0 0 0-43.1-19.5c-16.5 0-32.2 7.1-43.1 19.5L104.4 514.9c-17.8 18.8-23.3 46.2-14.1 70.4s31.4 41.1 57.2 43.4h728.9c25.9-2.2 48.2-19 57.4-43.3 9.3-24.3 3.8-51.6-14-70.5z"  horiz-adv-x="1024" />

    
    <glyph glyph-name="qingchu" unicode="&#59121;" d="M14.08-23.29600000000005L919.424 881.792l90.496-90.496L104.704-113.91999999999996zM104.704 881.92l905.088-905.216-90.496-90.496L14.08 791.296z"  horiz-adv-x="1024" />

    
    <glyph glyph-name="liubianxingwujiaoxing" unicode="&#58924;" d="M512 896L68.59581 640v-512L512-128l443.40419 256V640L512 896z m184.685714-759.637333L512 233.472l-184.697905-97.121524 35.279238 205.665524-149.418666 145.65181 206.494476 29.988571L512 704.78019l92.355048-187.111619 206.482285-29.988571-149.430857-145.65181 35.279238-205.665523z"  horiz-adv-x="1024" />

    
    <glyph glyph-name="jicai" unicode="&#58980;" d="M104.932862 331.533569L470.388693 161.469965c32.565371-14.473498 47.038869-14.473498 83.222614 0l369.074205 166.445229c18.091873 7.236749 25.328622 50.657244 25.328622 72.367492-25.328622-10.855124-57.893993-28.946996-57.893993-28.946997l-376.310954-177.300353-376.310954 177.300353s-32.565371 14.473498-57.893993 28.946997c0-21.710247 3.618375-57.893993 25.328622-68.749117z m408.876325-311.180212L137.498233 197.65371s-32.565371 14.473498-57.893993 28.946997c0-21.710247 3.618375-61.512367 25.328622-72.367491L470.388693-12.212014c32.565371-14.473498 47.038869-14.473498 83.222614 0l369.074205 166.44523c18.091873 7.236749 25.328622 50.657244 25.328622 72.367491-25.328622-10.855124-57.893993-28.946996-57.893993-28.946997l-376.310954-177.300353zM104.932862 505.215548L470.388693 338.770318c32.565371-14.473498 47.038869-14.473498 83.222614 0l369.074205 166.44523c28.946996 14.473498 28.946996 68.749117 0 83.222615L553.611307 787.448763c-28.946996 18.091873-50.657244 18.091873-83.222614 0L104.932862 588.438163c-28.946996-18.091873-28.946996-65.130742 0-83.222615z"  horiz-adv-x="1024" />

    
    <glyph glyph-name="zhinanzhenfaxiandaohangdizhiweizhi" unicode="&#59270;" d="M697.2 569.8c-6.1 7.6-16.8 9.1-25.9 4.5L442.1 466.6c-4.5-1.5-9.1-6-10.6-10.6L320.7 223.8c-4.5-9.1-3-19.7 4.6-25.8 4.5-4.6 10.6-6.1 16.7-6.1 3 0 6.1 1.5 9.1 3l227.6 109.3c4.5 1.5 7.6 6 10.6 10.6l112.4 230.7c4.6 6.2 3 16.8-4.5 24.3zM512 338.5c-25.9 0-45.6 19.7-45.5 45.5 0 25.7 19.7 45.5 45.5 45.5 24.2 0 45.5-19.7 45.5-45.5 0-25.7-21.3-45.5-45.5-45.5zM512-64.5c-60.5 0-119.3 11.9-174.6 35.3-53.4 22.6-101.4 54.9-142.5 96.1-41.2 41.2-73.5 89.1-96.1 142.6-23.4 55.3-35.3 114.1-35.3 174.6s11.9 119.3 35.3 174.6c22.6 53.4 54.9 101.4 96.1 142.6 41.1 41 89.1 73.4 142.5 96C392.7 820.6 451.5 832.5 512 832.5s119.3-11.9 174.6-35.2c53.4-22.6 101.4-54.9 142.6-96.1s73.5-89.1 96.1-142.6c23.4-55.3 35.3-114.1 35.3-174.6s-11.9-119.3-35.3-174.6c-22.7-53.4-55-101.4-96.2-142.6s-89.1-73.5-142.6-96.1c-55.2-23.3-114-35.2-174.5-35.2z m0 832c-211.5 0-383.5-172-383.5-383.5s172-383.5 383.5-383.5 383.5 172 383.5 383.5-172 383.5-383.5 383.5z"  horiz-adv-x="1024" />

    
    <glyph glyph-name="fuwurexian" unicode="&#58935;" d="M509.696 870.4C242.688 870.4 25.6 653.312 25.6 386.304 25.6 116.736 242.688-102.4 509.696-102.4c69.12 0 138.752 15.36 214.016 47.616 72.448 39.424 83.712 88.576 80.128 123.904-0.768 3.84-1.28 7.936-2.048 12.544-3.328 23.04-8.448 57.6-36.864 76.288 3.328 4.864 5.632 9.984 6.656 15.104 2.048 10.24-0.768 19.712-6.656 25.344l-96.256 134.656h-28.16l-57.6-38.4c-22.016-12.032-75.008 30.72-113.664 91.136C437.504 435.2 426.496 480 443.136 492.8l54.016 44.032 6.912 27.648-94.72 137.216c-4.096 7.936-13.056 14.08-23.808 15.872-10.24 1.536-19.968-0.768-26.624-6.912l-49.92-31.744-2.048-1.536c-32.768-32.768-126.464-158.464 49.664-394.752C509.696 65.28 647.936 99.84 693.248 111.36c0.512 0.256 2.304-0.256 4.608-1.792 11.776-7.424 24.064-30.208 27.648-46.848 6.144-15.104-17.152-42.752-49.408-58.88-53.248-24.32-107.776-36.096-166.4-36.096-228.352 0-413.952 187.904-413.952 418.816 0 228.352 185.856 413.952 413.952 413.952 230.912 0 418.816-185.856 418.816-413.952 0-89.088-25.6-169.216-76.8-238.848-18.688-28.16-13.056-51.2 1.024-61.44 12.8-9.472 34.304-9.216 50.944 11.008 61.952 87.808 94.72 187.904 94.72 289.28 0 266.752-219.136 483.84-488.704 483.84z"  horiz-adv-x="1024" />

    
    <glyph glyph-name="zhifuchenggong" unicode="&#58932;" d="M512 896C229.376 896 0 666.624 0 384s229.376-512 512-512 512 229.376 512 512S794.624 896 512 896z m292.864-443.392c-89.088-20.48-272.384-249.856-331.776-361.472C389.12 197.632 290.816 267.264 220.16 305.152l96.256 92.16 146.432-148.48s158.72 307.2 342.016 427.008c-22.528-57.344-14.336-165.888 0-223.232z"  horiz-adv-x="1024" />

    
    <glyph glyph-name="chenggong" unicode="&#58966;" d="M512 384m-483.555556 0a483.555556 483.555556 0 1 1 967.111112 0 483.555556 483.555556 0 1 1-967.111112 0ZM409.6 201.955556L250.311111 361.244444c-11.377778 11.377778-11.377778 28.444444 0 39.822223 11.377778 11.377778 28.444444 11.377778 39.822222 0l159.288889-159.288889c11.377778-11.377778 11.377778-28.444444 0-39.822222-11.377778-11.377778-28.444444-11.377778-39.822222 0zM409.6 241.777778l324.266667 324.266666c11.377778 11.377778 28.444444 11.377778 39.822222 0 11.377778-11.377778 11.377778-28.444444 0-39.822222l-324.266667-324.266666c-11.377778-11.377778-28.444444-11.377778-39.822222 0-11.377778 11.377778-11.377778 28.444444 0 39.822222z"  horiz-adv-x="1024" />

    
    <glyph glyph-name="gongyinglian" unicode="&#58953;" d="M335.896647 370.9641v-185.881657l-35.877711-19.567653-136.962526 78.292696L0 152.473369v-189.150295l163.05641-91.323074 163.056411 91.323074v140.242206l42.3929 22.825247 163.05641-91.289946V260.084416l-32.609073 16.310058z m-65.880708-380.034292l-112.966754-65.218147-112.966753 65.218147V121.355059l112.966753 65.218147 112.966754-65.218147zM965.274957 243.807486l-140.242206-78.270611-32.609074 19.567653V370.9641L596.780278 260.084416v-224.983835l163.045368 91.300989 42.403943-22.83629v-140.242206l163.045368-91.323074 163.067453 91.323074V152.473369z m117.439044-254.258015l-112.966754-65.218147-112.966753 65.218147V119.996808l112.966753 65.218147 112.966754-65.218147zM759.825646 426.398421l-163.045368 91.267861V540.5357l130.436295 75.013016V801.463502L564.171205 896 401.114794 801.463502v-185.914786l130.447337-75.013016v-22.869418l-163.05641-91.267861 195.665484-110.868641 32.609073 19.567652zM562.846082 576.888247l-112.966754 65.218147V772.542688l112.966754 65.22919L675.812835 772.542688v-130.436294z"  horiz-adv-x="1128" />

    
    <glyph glyph-name="liwu" unicode="&#58894;" d="M768.512-62.656h-512.32A163.328 163.328 0 0 0 93.12 100.48V496.32h838.336v-395.84a163.2 163.2 0 0 0-162.944-163.136zM139.776 449.792V100.48A116.48 116.48 0 0 1 256.192-16h512.32a116.48 116.48 0 0 1 116.416 116.48V449.792H139.776zM931.52 449.792H93.12A93.248 93.248 0 0 0 0 542.912v46.592c0 51.328 41.792 93.12 93.12 93.12h838.4c51.392 0 93.184-41.792 93.184-93.12v-46.592c0-51.328-41.856-93.12-93.184-93.12zM93.12 636.096a46.72 46.72 0 0 1-46.528-46.592v-46.592a46.72 46.72 0 0 1 46.528-46.656h838.4a46.72 46.72 0 0 1 46.656 46.656v46.592a46.656 46.656 0 0 1-46.656 46.592H93.12zM512.32-16a23.232 23.232 0 0 0-23.296 23.296v628.8a23.296 23.296 0 0 0 46.592 0v-628.8A23.232 23.232 0 0 0 512.32-16zM538.368 636.096H258.112l-6.848 6.848c-39.488 39.808-60.288 92.992-56.96 145.856 2.368 37.504 16.576 69.12 39.04 86.656C250.56 888.896 273.536 896 299.904 896c52.544 0 112-27.904 158.976-74.624a267.456 267.456 0 0 0 76.608-159.488l2.88-25.792z m-260.48 46.528h206.784a222.528 222.528 0 0 1-58.56 105.792c-38.592 38.208-85.76 61.056-126.208 61.056-15.872 0-28.928-3.712-37.824-10.688-11.456-8.96-19.712-29.76-21.184-52.928-2.368-36.608 11.136-73.728 36.992-103.232zM766.592 636.096H486.336l2.816 25.792c3.968 35.072 19.008 102.4 76.608 159.488C612.8 868.096 672.256 896 724.8 896c26.304 0 49.344-7.104 66.56-20.48 22.336-17.6 36.608-49.216 38.848-86.656 3.456-52.864-17.344-106.048-56.896-145.856l-6.72-6.912z m-226.624 46.528h206.848c25.92 29.504 39.36 66.624 36.992 103.232-1.344 23.168-9.792 43.968-21.184 52.928-8.96 6.976-21.952 10.688-37.824 10.688-40.576 0-87.744-22.848-126.272-61.056a223.616 223.616 0 0 1-58.56-105.792z"  horiz-adv-x="1024" />

    
    <glyph glyph-name="weixin1" unicode="&#58981;" d="M575.7 394.3c-13.6 0-24.6-11-24.6-24.6 0-13.6 11-24.6 24.6-24.6 13.6 0 24.6 11 24.6 24.6 0 13.6-11 24.6-24.6 24.6z m-65.6 90.1c18.1 0 32.8 14.7 32.8 32.8 0 18.1-14.7 32.8-32.8 32.8-18.1 0-32.8-14.7-32.8-32.8 0.1-18.1 14.7-32.8 32.8-32.8zM370.9 550c-18.1 0-32.8-14.7-32.8-32.8 0-18.1 14.7-32.8 32.8-32.8 18.1 0 32.8 14.7 32.8 32.8-0.1 18.1-14.7 32.8-32.8 32.8zM518.3 831.2c-243.5 0-441-197.4-441-441s197.4-441 441-441 441 197.4 441 441-197.4 441-441 441z m-77.8-559.8c-28.9 0-56.3 5-81.4 14.2l-62-38.8 14.3 63.3c-48.5 33-79.8 84.1-79.8 141.5 0 99.5 93.5 180.2 208.9 180.2 102.7 0 187.9-64 205.4-148.2-5.7 0.5-11.3 0.7-17 0.7-106.3 0-192.5-75.2-192.5-167.9 0-15.6 2.6-30.6 7.2-44.9-1 0.1-2-0.1-3.1-0.1z m293.7-68.8l13.5-54-52.1 35.6c-21.5-7.3-44-11-66.7-11-97.3 0-176.1 66-176.1 147.5 0 81.4 78.9 147.5 176.1 147.5 97.3 0 176.1-66 176.1-147.5 0.1-48.4-27.9-91.2-70.8-118.1zM690.4 394.3c-13.6 0-24.6-11-24.6-24.6 0-13.6 11-24.6 24.6-24.6 13.6 0 24.6 11 24.6 24.6-0.1 13.6-11.1 24.6-24.6 24.6z"  horiz-adv-x="1024" />

    
    <glyph glyph-name="qitafuwu" unicode="&#58889;" d="M430.424 322.904H61.784c-22.61 0-40.96-18.35-40.96-40.96v-368.64c0-22.61 18.35-40.96 40.96-40.96h368.64c22.61 0 40.96 18.35 40.96 40.96v368.64c0 22.61-18.35 40.96-40.96 40.96zM405.848-62.12H86.36V257.368h319.488V-62.12zM962.56 322.904H593.92c-22.61 0-40.96-18.35-40.96-40.96v-368.64c0-22.61 18.35-40.96 40.96-40.96h368.64c22.61 0 40.96 18.35 40.96 40.96v368.64c0 22.61-18.35 40.96-40.96 40.96zM937.984-62.12H618.496V257.368h319.488V-62.12zM430.424 855.339H61.784c-22.61 0-40.96-18.35-40.96-40.96v-368.64c0-22.61 18.35-40.96 40.96-40.96h368.64c22.61 0 40.96 18.35 40.96 40.96V814.379c0 22.61-18.35 40.96-40.96 40.96z m-24.576-385.024H86.36V789.803h319.488v-319.488zM778.24 855.339c-124.436 0-225.28-100.844-225.28-225.28s100.844-225.28 225.28-225.28 225.28 100.844 225.28 225.28-100.844 225.28-225.28 225.28m0-65.536c88.064 0 159.744-71.68 159.744-159.744s-71.68-159.744-159.744-159.744-159.744 71.68-159.744 159.744 71.68 159.744 159.744 159.744"  horiz-adv-x="1024" />

    
    <glyph glyph-name="quanbushangpin_" unicode="&#58890;" d="M511.7 574.1c-69.1 0-125.3 56.2-125.3 125.3S442.6 824.7 511.7 824.7 637 768.4 637 699.4s-56.2-125.3-125.3-125.3z m0 205c-44 0-79.7-35.8-79.7-79.7s35.8-79.7 79.7-79.7 79.7 35.8 79.7 79.7-35.8 79.7-79.7 79.7zM936.9-56.2H86.5l-22.8 22.8V429.8l22.8 22.8h850.4l22.8-22.8v-463.2l-22.8-22.8z m-827.7 45.6h804.9V407H109.2v-417.6zM362 59.7L347.7 115h-92.2l-13.9-55.3h-51.2l76.5 277.1h69.8l76.5-277.1H362z m-95 102.7h69.5L302 293.6l-35-131.2zM458.6 59.7V336.8h53v-229.7h116.6v-47.4H458.6zM663.4 59.7V336.8h53v-229.7H833v-47.4H663.4zM837.3 408.6l-327 166.1L186 410.9l-20.5 40.6 334.6 169.1h20.5l337.3-171.4z"  horiz-adv-x="1024" />

    
    <glyph glyph-name="kefu" unicode="&#59428;" d="M644.266667 12.8c-4.266667-29.866667-29.866667-55.466667-64-55.466667h-85.333334c-34.133333 0-64 29.866667-64 64s29.866667 64 64 64h85.333334c21.333333 0 42.666667-12.8 55.466666-29.866666 89.6 25.6 157.866667 93.866667 183.466667 183.466666H768V533.333333h51.2C785.066667 669.866667 657.066667 768 512 768 366.933333 768 238.933333 669.866667 204.8 533.333333H256v-298.666666H85.333333v298.666666h72.533334C196.266667 695.466667 341.333333 810.666667 512 810.666667c170.666667 0 315.733333-115.2 354.133333-277.333334H938.666667v-294.4h-76.8c-29.866667-110.933333-110.933333-196.266667-217.6-226.133333z"  horiz-adv-x="1024" />

    
    <glyph glyph-name="guanbi" unicode="&#58907;" d="M583.168 372.224L958.464 747.52c18.944 18.944 18.944 50.176 0 69.12l-2.048 2.048c-18.944 18.944-50.176 18.944-69.12 0L512 442.88 136.704 818.688c-18.944 18.944-50.176 18.944-69.12 0l-2.048-2.048c-19.456-18.944-19.456-50.176 0-69.12l375.296-375.296L65.536-3.072c-18.944-18.944-18.944-50.176 0-69.12l2.048-2.048c18.944-18.944 50.176-18.944 69.12 0L512 301.056 887.296-74.24c18.944-18.944 50.176-18.944 69.12 0l2.048 2.048c18.944 18.944 18.944 50.176 0 69.12L583.168 372.224z"  horiz-adv-x="1024" />

    
    <glyph glyph-name="xuniqia" unicode="&#58967;" d="M1611.722914 676.534725H0V822.727474A77.173085 77.173085 0 0 0 80.586146 895.918655h1450.550622a85.516122 85.516122 0 0 0 56.884338-21.426434A69.967736 69.967736 0 0 0 1611.722914 822.727474z m0-73.191182v-658.151792a69.967736 69.967736 0 0 0-23.512193-51.764748 85.516122 85.516122 0 0 0-56.884338-21.426434H80.586146a85.516122 85.516122 0 0 0-56.884338 21.426434A69.967736 69.967736 0 0 0 0-54.808249V603.343543zM161.172291 383.959612v-73.191182H967.033748V383.959612z m0-219.383931v-73.191181h564.10302v73.191181zM1289.378331 237.766863l-80.586145-146.382363h161.172291l80.586146 146.382363z m0 0"  horiz-adv-x="1611" />

    
    <glyph glyph-name="quanbushangpin_1" unicode="&#58905;" d="M511.7 572.8c-68.6 0-124.4 55.8-124.4 124.4S443.1 821.7 511.7 821.7s124.4-55.8 124.4-124.4-55.8-124.5-124.4-124.5zM268.7 163.9h69l-34.3 130.3zM934.1 452.1H89.3l-22.6-22.6v-460.1l22.6-22.6H934l22.6 22.6V429.5l-22.5 22.6zM363 61.8l-14.1 55h-91.6l-13.8-55h-50.9l76 275.2h69.3l76-275.2H363z m264.4 0H458.9V337.1h52.7V109h115.8v-47.2z m203.4 0H662.4V337.1h52.7V109h115.8v-47.2zM835.1 408.4l-324.8 165-322.1-162.7-20.4 40.4L500.1 619h20.5l335-170.2z"  horiz-adv-x="1024" />

    
    <glyph glyph-name="rexiandianhua" unicode="&#58921;" d="M925.793882 684.818462C831.672189 813.420854 681.272205 896 511.58566 896c-112.885455 0-217.236203-36.546902-301.862559-98.455022l1.443443 1.006612C82.886027 704.559847 0.525797 554.458747 0.525797 385.122067c0-254.083989 185.426473-464.858684 428.338772-504.386437l2.945863-0.395847c27.2205-4.558242 58.598396-7.177231 90.583059-7.203221h0.02499c1.823297-0.02699 3.976466-0.042983 6.132635-0.042984 41.254087 0 81.178686 5.689805 119.032084 16.328701l-3.090808-0.741713c33.567052 11.330629 62.336954 29.102774 86.130776 52.007938l-0.071972-0.068973c11.752467 11.752467 68.998384 72.789922 60.278748 135.722646-7.348166 37.372584-31.70577 67.849827-64.502119 83.480798l-0.705728 0.302883-15.922858 8.340782c10.945778 10.560926 18.564839 24.503548 21.171833 40.142516l0.057978 0.422837c0.279892 2.084196 0.43983 4.493267 0.43983 6.939323 0 18.76876-9.406372 35.340368-23.760834 45.258542l-0.183929 0.119953c-15.544004 12.13132-65.5867 48.526281-80.750851 58.383479-11.136704 8.877576-25.413197 14.244505-40.944206 14.244506s-29.807502-5.36693-41.078155-14.347466l0.133948 0.10296a59.902893 59.902893 0 0 0-19.666413-10.499949l-0.426836-0.114956c-23.711853 18.579833-44.779727 38.205263-64.069285 59.474058l-0.380854 0.425836a368.903698 368.903698 0 0 0-54.031157 71.047594l-0.940638 1.742328c-1.895269 6.824368 15.922858 22.747225 15.922858 22.747225 13.81667 12.022362 22.50132 29.635568 22.501321 49.275993a64.930953 64.930953 0 0 1-14.2605 40.703299l0.099962-0.12995s-37.911376 68.998384-45.872305 79.613289c-9.040513 14.873263-25.156296 24.656489-43.557198 24.656489-0.41484 0-0.827681-0.004998-1.239522-0.014994l0.060976 0.001c-13.961614-0.225913-26.996586-3.995459-38.305224-10.442972l0.393848 0.20692c-5.307952-3.03283-47.768574-29.570593-56.48821-37.911376-16.529624-13.9996-26.952603-34.768588-26.952603-57.971638 0-0.811687 0.012995-1.619375 0.037985-2.425064l-0.002999 0.117954c-0.001999-0.346866-0.001999-0.757708-0.001999-1.167549 0-47.644621 11.781455-92.537304 32.589429-131.925111l-0.741714 1.540406c27.993202-56.850071 60.980477-105.831176 99.595582-149.742238l-0.646751 0.75071c37.38358-43.130363 79.478342-80.64889 125.898436-112.291684l2.241136-1.442444c35.288388-27.901237 78.888569-46.805945 126.538188-52.575719l1.223528-0.120954h11.752467c1.672355-0.142945 3.619604-0.224913 5.585845-0.224913 18.390906 0 35.110456 7.15624 47.526667 18.834735l-0.035986-0.032988 24.642495-15.16415c18.196981-12.890028 31.845716-20.093249 34.499692-37.911376-3.378697-33.081239-18.736772-62.049065-41.601953-82.935009l-0.099961-0.089965c-16.308709-16.317706-36.0341-29.217729-58.012622-37.53652l-1.129565-0.374856c-32.896311-9.20245-70.672739-14.49141-109.68369-14.49141-26.896625 0-53.205476 2.51403-78.70564 7.320176l2.623988-0.410841C226.436654-24.626875 64.166248 159.952924 64.166248 382.432105 64.166248 629.70772 264.622924 830.164396 511.898539 830.164396S959.63083 629.70772 959.63083 382.432105c0-66.967168-14.702329-130.499661-41.054164-187.546656l1.149557 2.77493c-1.8153-3.896497-2.873891-8.458737-2.873892-13.268882 0-17.709169 14.356462-32.065631 32.065631-32.065631 12.900024 0 24.019735 7.617062 29.108772 18.598826l0.081968 0.197924c29.161751 62.292971 46.179187 135.262823 46.179187 212.208142 0 113.39126-36.957744 218.15085-99.483625 302.891162l0.986619-1.40046z m-298.361909-522.038628c-2.849901-0.594771-6.123638-0.934639-9.477344-0.93464s-6.628443 0.339869-9.791223 0.988619l0.312879-0.053979c-38.321218 5.279963-72.311107 20.725005-100.056404 43.497221l0.349865-0.278892c-43.821096 30.581204-81.798447 65.066901-114.941662 103.811955l-0.687735 0.823682c-34.425721 38.895996-64.366171 83.00898-88.250958 130.681591l-1.599383 3.52464c-15.455038 29.763519-25.102317 64.779012-26.523768 101.902692l-0.013995 0.457824a37.740442 37.740442 0 0 0 5.026061 18.380909l-0.097962-0.183929a179.113908 179.113908 0 0 0 51.886985 32.9253l1.189541 0.436831c18.145001-25.078326 34.507689-53.615318 47.741584-83.835661l1.163551-2.98185c-4.454282-6.046668-9.182458-11.376612-14.347465-16.246733l-0.058977-0.054978c-12.983992-12.256272-21.279791-29.358675-21.98452-48.40033l-0.003999-0.126951c0-22.367372 15.544004-51.559111 68.619531-113.734128 12.787067-15.359075 25.548145-29.201736 38.96497-42.378653l0.083967-0.081969c32.983277-30.708155 47.009866-37.911376 56.48821-37.911375 3.390692-0.508804 7.304182-0.799692 11.284647-0.799692 11.404601 0 22.251417 2.38608 32.06863 6.68742l-0.513802-0.200922c13.268882 5.686806 28.433032 18.196981 31.466862 18.196981 31.962671-20.231196 59.698972-41.216101 85.566993-64.255215l-0.644751 0.564783c-12.377226-19.255572-26.667713-35.837176-42.961428-50.199636l-0.2579-0.222914z"  horiz-adv-x="1024" />

    
    <glyph glyph-name="gongsizhuanzhang" unicode="&#58887;" d="M859.988309 896H163.814798A164.523612 164.523612 0 0 1 0.078757 731.71266v-695.464698A164.523612 164.523612 0 0 1 163.814798-127.842486h696.173511A164.523612 164.523612 0 0 1 1023.921243 36.247962V731.71266A164.56299 164.56299 0 0 1 859.988309 896zM152.355638 474.649439a367.205045 367.205045 0 0 0 435.172435 278.957698 368.740809 368.740809 0 0 0 284.982618-329.716659c2.047685-20.910014-8.74204-28.273804-20.7525-28.470696a711.294878 711.294878 0 0 0-149.874788 72.180895c-9.253961 8.584525-5.670512 19.37425 3.583448 20.752499s62.257499 7.560683 62.257499 7.560683a281.832333 281.832333 0 0 1-199.76742 174.880173 290.062452 290.062452 0 0 1-343.105369-216.582065c-0.354407-1.37825-2.402092-16.814644-14.924473-16.302722a229.104445 229.104445 0 0 0-46.466697 15.751423c-11.498539 5.316105-14.570066 3.937856-11.144132 20.910013z m453.207814-121.561606a28.549454 28.549454 0 0 0 28.825104-28.273804 28.549454 28.549454 0 0 0-28.825104-28.273804h-57.610829v-35.440702a35.637594 35.637594 0 0 0-35.992002-35.440701 35.637594 35.637594 0 0 0-35.992001 35.440701v35.440702H418.279034a28.549454 28.549454 0 0 0-28.825104 28.273804 28.549454 28.549454 0 0 0 28.825104 28.273804h57.610829v28.313182H418.279034a28.549454 28.549454 0 0 0-28.825104 28.273804 28.549454 28.549454 0 0 0 28.825104 28.273804h57.610829v1.890171L411.939086 502.608214a28.155668 28.155668 0 0 0 0 40.284264 29.494539 29.494539 0 0 0 41.150593 0l58.477157-57.453315 58.634671 57.453315a29.494539 29.494539 0 0 0 41.150593 0 28.155668 28.155668 0 0 0 8.505768-20.161821 28.155668 28.155668 0 0 0-8.505768-20.161821l-63.438856-61.745578v-2.914013h57.610829a28.549454 28.549454 0 0 0 28.825104-28.273804 28.549454 28.549454 0 0 0-28.825104-28.273804h-57.610829v-28.313183h57.610829z m269.703738-32.054146a60.642978 60.642978 0 0 0-1.535764-7.875711 367.559452 367.559452 0 0 0-441.03984-275.6499 368.583295 368.583295 0 0 0-284.628211 329.204737c-1.693278 26.934933 17.680972 32.251038 37.370251 22.13075 15.436394-7.875711 120.89217-67.573604 133.572065-75.449316a13.191817 13.191817 0 0 0-4.292262-25.359791c-13.900631-1.37825-57.453315-5.158591-57.453315-5.158591a281.517305 281.517305 0 0 1 194.805722-162.712198 284.864482 284.864482 0 0 1 341.215198 211.580988 78.757114 78.757114 0 0 1 1.89017 9.450853c1.220735 6.851869 3.26842 16.972158 16.617752 12.325489s45.954776-13.900631 56.075065-16.617751 8.899554-6.497462 7.560683-15.751423z m0 0"  horiz-adv-x="1024" />

    
    <glyph glyph-name="xiala-copy" unicode="&#59429;" d="M104.2 253.10000000000002L468.8 651.8a57.377 57.377 0 0 0 43.1 19.5c16.5 0 32.2-7.1 43.1-19.5L919.6 253.10000000000002c17.8-18.8 23.3-46.2 14.1-70.4s-31.4-41.1-57.2-43.4l-728.9 0c-25.9 2.2-48.2 19-57.4 43.29999999-9.3 24.3-3.8 51.6 14 70.50000001z"  horiz-adv-x="1024" />

    
    <glyph glyph-name="xiala1" unicode="&#59571;" d="M537.5097575 150.11580221999998c-7.25014161-7.25014161-16.91699708-13.69471193-26.31532879-12.08356933-9.39833171-1.61114258-17.99109214 5.63899903-25.24123374 12.08356933L263.34699525 373.25904948000004c-11.54652182 11.54652182-11.54652182 29.53761396 1e-8 41.08413576 11.54652182 11.54652182 29.53761396 11.54652182 41.08413577 0l207.03182146-212.67082047 207.83739273 212.40229671c11.54652182 11.54652182 29.53761396 11.54652182 41.08413576 0 11.54652182-11.54652182 11.54652182-29.53761396 0-41.08413578l-222.87472348-222.87472347zM537.5097575 357.14762368000004c-7.25014161-7.25014161-16.91699708-13.69471193-26.31532879-12.08356935-9.39833171-1.61114258-17.99109214 5.63899903-25.24123374 12.08356935L263.34699525 580.29087092c-11.54652182 11.54652182-11.54652182 29.53761396 1e-8 41.08413576 11.54652182 11.54652182 29.53761396 11.54652182 41.08413577 0l207.03182146-212.67082046 207.83739273 212.40229671c11.54652182 11.54652182 29.53761396 11.54652182 41.08413576 0 11.54652182-11.54652182 11.54652182-29.53761396 0-41.08413579l-222.87472348-222.87472346z"  horiz-adv-x="1024" />

    
    <glyph glyph-name="xiala1-copy" unicode="&#59572;" d="M488.08460234 603.26643542c6.79700776 6.79700776 15.85968476 12.83879243 24.67062074 11.32834625 8.81093598 1.51044617 16.86664888-5.28656159 23.66365664-11.32834626L745.11219195 394.06964111c10.82486421-10.82486421 10.82486421-27.69151309-1e-8-38.51637727-10.82486421-10.82486421-27.69151309-10.82486421-38.51637728 0l-194.09233262 199.37889419-194.84755568-199.12715317c-10.82486421-10.82486421-27.69151309-10.82486421-38.51637728 0-10.82486421 10.82486421-10.82486421 27.69151309 0 38.5163773l208.94505326 208.94505325zM488.08460234 409.1741028c6.79700776 6.79700776 15.85968476 12.83879243 24.67062074 11.32834627 8.81093598 1.51044617 16.86664888-5.28656159 23.66365664-11.32834627L745.11219195 199.97730850999994c10.82486421-10.82486421 10.82486421-27.69151309-1e-8-38.51637727-10.82486421-10.82486421-27.69151309-10.82486421-38.51637728 0l-194.09233262 199.37889418-194.84755568-199.12715317c-10.82486421-10.82486421-27.69151309-10.82486421-38.51637728 0-10.82486421 10.82486421-10.82486421 27.69151309 0 38.51637731l208.94505326 208.94505324z"  horiz-adv-x="1024" />

    
    <glyph glyph-name="lajitong" unicode="&#58882;" d="M329.626 809.6h364.8V870.4h-364.8v-60.8zM25.6 687.923h972.851v60.8H25.6v-60.8z m547.302-547.302h60.8V566.272h-60.8v-425.651z m-182.425 0h60.8V566.272h-60.8v-425.651zM816.05 19.149a60.8 60.8 0 0 0-60.8-60.877H268.8a60.8 60.8 0 0 0-60.8 60.826V627.174h-60.851V19.15a121.523 121.523 0 0 1 121.6-121.549H755.2a121.498 121.498 0 0 1 121.498 121.6v608h-60.826v-608.051h0.18z"  horiz-adv-x="1024" />

    
    <glyph glyph-name="chacha" unicode="&#58888;" d="M444.804 7.33C199.531 7.33 0 206.657 0 451.66S199.553 896 444.804 896s444.804-199.327 444.804-444.34-199.542-444.33-444.804-444.33z m0 848.285c-222.95 0-404.385-181.22-404.385-403.956s181.412-403.944 404.385-403.944S849.19 228.867 849.19 451.66 667.867 855.615 444.804 855.615z m0 0M617.886 307.174l-2.837 2.837c-0.6 0.6-1.22 1.006-1.617 1.413L473.276 451.58l142.168 142.01c0.407 0.192 0.6 0.6 0.995 0.803a10.06 10.06 0 0 0 1.436 1.424 20.187 20.187 0 0 1-0.622 26.268l-1.775 1.774a20.707 20.707 0 0 1-24.663 1.741 10.602 10.602 0 0 1-1.424-1.424l-2.419-2.26-142.134-141.92-142.146 141.987-2.26 2.26c-0.61 0.6-1.232 1.007-1.617 1.425a20.707 20.707 0 0 1-24.662-1.786l-1.786-1.775a19.961 19.961 0 0 1-0.385-26.268c0.385-0.395 0.792-0.994 1.221-1.424a3.39 3.39 0 0 1 1.006-0.802l142.157-142.01L273.35 308.96a20.289 20.289 0 0 1 27.127-30.122l2.848 2.848 141.48 141.592L587.74 280.465a20.232 20.232 0 0 1 34.576 14.14 22.29 22.29 0 0 1-3.233 11.303c-0.418 0.43-0.814 1.017-1.198 1.424z m0 0"  horiz-adv-x="1179" />

    
    <glyph glyph-name="dui" unicode="&#58891;" d="M512 896C230.4 896 0 665.6 0 384s230.4-512 512-512 512 230.4 512 512S793.6 896 512 896z m0-960C262.4-64 64 140.8 64 384S268.8 832 512 832s448-204.8 448-448-198.4-448-448-448z m249.6 531.2L467.2 172.8l-6.4-6.4h-38.4s-6.4 0-6.4 6.4L268.8 320c-12.8 12.8-12.8 38.4 0 51.2 12.8 12.8 38.4 12.8 51.2 0l121.6-121.6L704 518.4c12.8 12.8 38.4 12.8 51.2 0 19.2-12.8 19.2-38.4 6.4-51.2z"  horiz-adv-x="1024" />

    
    <glyph glyph-name="fukuan" unicode="&#58892;" d="M1076.009949 189.49069a39.126962 39.126962 0 0 1-49.584951 21.029979l-39.652962-16.101984c4.927995 12.000988 9.141991 24.002977 13.016988 36.079965 73.022929 230.356775-25.883975 482.722529-235.059771 600.027414a510.375502 510.375502 0 0 1-96.462906 41.533959 502.362509 502.362509 0 0 1-81.52592 17.757983c-6.508994 0.977999-12.903987 2.444998-19.449981 3.159997C287.909719 923.413973 34.905966 719.993172 3.227997 439.260446c-27.049974-240.251765 118.733884-468.690542 346.721661-543.294469 33.219968-10.796989 67.680934-18.283982 102.6699-22.045979 13.693987-1.504999 27.349973-1.090999 41.00696-1.467998 4.213996-0.112 8.464992-0.451 12.715988-0.451a487.576524 487.576524 0 0 1 57.862943 3.611996c5.717994 0.676999 11.436989 1.089999 17.192983 1.879999 15.536985 2.408998 30.81197 5.869994 46.161955 9.66999 7.071993 1.692998 14.182986 2.482998 21.217979 4.476996 2.106998 0.600999 3.761996 1.503999 4.288996 1.917998l1.843998 0.789999a519.668493 519.668493 0 0 1 82.87992 32.881968 13.091987 13.091987 0 0 1 3.874996 2.745997l2.557997 1.880999a33.294967 33.294967 0 0 1-28.892972 57.786943l-0.789999 0.789999-8.389992-4.250996c-31.14997-15.800985-63.880938-26.711974-97.138905-34.724966-11.887988-2.745997-23.701977-5.567995-35.664965-7.373992-6.546994-0.977999-13.129987-1.504999-19.713981-2.181998-15.161985-1.579998-30.47397-2.745997-45.709955-2.745998-4.364996 0-8.652992 0.376-12.941987 0.451a431.257579 431.257579 0 0 0-115.498888 18.999981 438.781572 438.781572 0 0 0-83.068918 35.852965C116.169887 95.435782 31.14397 312.70057 94.083908 511.193376 159.923844 719.240173 365.751643 844.70905 574.024439 816.530078c25.056976-3.574997 49.886951-8.841991 73.776928-16.666984l0.15 0.451999c28.291972-9.029991 55.679946-20.80498 81.338921-35.213965 180.207824-101.014901 265.382741-318.429689 202.441802-516.846495-2.745997-8.615992-5.717994-17.042983-8.878991-25.469976l-15.235985 38.185963a38.937962 38.937962 0 0 1-49.547952 20.99298c-19.525981-7.825992-29.006972-30.172971-21.819979-47.440954l50.110951-125.994877 0.414-0.339c4.175996-7.486993 11.925988-14.069986 18.697982-16.816983 9.555991-4.099996 20.01498-4.288996 29.569971-0.414l114.558888 46.725955 2.745997-1.503999 4.815996 4.664995c17.944982 8.614992 26.334974 29.833971 18.847981 48.644953zM521.542491 400.134484c-4.853995 9.291991-9.142991 18.019982-13.882987 26.371974-43.903957 77.689924-88.034914 155.226848-131.901871 233.066773-1.879998 3.347997-4.175996 3.836996-7.485993 3.836996h-60.119941l-5.792994-0.3 161.396842-279.266727H327.52668v-57.184944H485.989525v-89.802912H327.41468v-52.744949H486.629525v-133.444869h64.482937V184.448695h153.45985v52.858948H550.284463v89.877912H704.609312v56.808945H578.162435l160.042844 279.378727c-22.008979 0-42.323959-0.189-62.564939 0.112-4.589996 0.038-7.034993-1.353999-9.179991-5.266995-19.411981-34.949966-38.975962-69.674932-58.538943-104.436898l-86.379915-153.64685z"  horiz-adv-x="1078" />

    
    <glyph glyph-name="miaozhun" unicode="&#58893;" d="M978.016 400h-56.8C912.896 613.28 741.28 784.896 528 793.184v56.8a16 16 0 0 1-32 0v-56.8C282.72 784.896 111.104 613.28 102.816 400h-56.8a16 16 0 0 1 0-32h56.8C111.104 154.72 282.72-16.896 496-25.184v-56.8a16 16 0 0 1 32 0v56.8C741.28-16.896 912.896 154.72 921.184 368h56.8a16 16 0 0 1 0.032 32z m-88.832 0h-225.76A152.224 152.224 0 0 1 528 535.424v225.76C723.648 752.928 880.928 595.648 889.184 400zM496 400H392.576A120.48 120.48 0 0 0 496 503.424V400z m0-32v-103.424A120.512 120.512 0 0 0 392.576 368H496z m32 0h103.424A120.512 120.512 0 0 0 528 264.576V368z m0 32V503.424A120.48 120.48 0 0 0 631.424 400H528z m-32 361.184v-225.76A152.224 152.224 0 0 1 360.576 400h-225.76C143.072 595.648 300.352 752.928 496 761.184zM134.816 368h225.76A152.224 152.224 0 0 1 496 232.576v-225.76C300.352 15.072 143.072 172.352 134.816 368zM528 6.816v225.76A152.224 152.224 0 0 1 663.424 368h225.76C880.928 172.352 723.648 15.072 528 6.816z"  horiz-adv-x="1024" />

    
    <glyph glyph-name="jifen1" unicode="&#58895;" d="M512-128A511.996 511.996 0 1 0 747.751 838.742a32.582 32.582 0 0 0-30.022-59.112A447.531 447.531 0 1 1 932.302 533.87a32.582 32.582 0 1 0 61.44 22.11A511.996 511.996 0 0 0 512-128zM459.404 292.768a927.877 927.877 0 0 1-51.665 80.756V133.35h-48.872V357.698a568.548 568.548 0 0 0-75.403-132.653 349.088 349.088 0 0 1-26.298 49.57 523.167 523.167 0 0 1 93.09 161.046h-85.41v46.545h93.09v80.058c-29.091-5.585-58.182-9.542-85.876-12.8a193.162 193.162 0 0 1-13.033 40.262 947.658 947.658 0 0 1 195.723 44.916l29.556-41.193a684.679 684.679 0 0 0-76.567-21.41v-88.669h80.988v-46.545H407.74v-10.473c18.153-18.152 69.818-75.17 80.988-90.065z m131.955 0a432.637 432.637 0 0 0-83.548-157.788 499.662 499.662 0 0 1-42.356 29.09 320.463 320.463 0 0 1 75.403 139.636z m150.807 60.974H503.389V601.827h238.777zM691.43 553.886H551.796v-151.737h139.635z m3.957-247.387a738.205 738.205 0 0 0 72.61-148.945l-48.407-19.781a781.26 781.26 0 0 1-68.188 150.108z"  horiz-adv-x="1024" />

    
    <glyph glyph-name="gantanhao" unicode="&#58898;" d="M512 896c282.81 0 512-229.19 512-512s-229.19-512-512-512S0 101.19 0 384 229.19 896 512 896z m0.745-632.273c14.429 0 25.6 3.118 33.512 9.309 7.913 6.19 11.916 17.221 11.916 33.14V629.388c0 15.872-3.956 26.95-11.916 33.14-7.912 6.19-19.083 9.31-33.512 9.31-30.255 0-45.429-13.639-45.429-40.96v-326.191c0-27.323 15.128-40.96 45.429-40.96z m0-59.579c-14.43 0-26.438-4.84-36.12-14.522a49.012 49.012 0 0 1-14.522-36.12c0-14.428 4.841-26.437 14.522-36.118 9.682-9.682 21.737-14.523 36.12-14.523 14.429 0 26.438 4.841 36.119 14.523 9.681 9.681 14.522 21.736 14.522 36.119 0 14.429-4.84 26.438-14.522 36.12a49.012 49.012 0 0 1-36.12 14.521z"  horiz-adv-x="1024" />

    
    <glyph glyph-name="shouji" unicode="&#58899;" d="M780.8 864H243.2c-57.6 0-108.8-51.2-108.8-108.8v-742.4c0-57.6 51.2-108.8 108.8-108.8h537.6c57.6 0 108.8 51.2 108.8 108.8V755.2C889.6 812.8 838.4 864 780.8 864z m57.6-851.2c0-32-25.6-51.2-51.2-51.2h-544c-32 0-51.2 25.6-51.2 51.2V121.6h646.4v-108.8z m0 160H185.6V755.2c0 32 25.6 51.2 51.2 51.2h537.6c32 0 51.2-25.6 51.2-51.2v-582.4zM486.4-6.4c19.2-12.8 38.4-12.8 51.2 0s25.6 25.6 25.6 44.8-12.8 38.4-25.6 44.8c-19.2 12.8-38.4 12.8-51.2 0-19.2-12.8-25.6-25.6-25.6-44.8s6.4-38.4 25.6-44.8z m108.8 761.6H428.8c-12.8 0-25.6-12.8-25.6-25.6S416 704 428.8 704h160c12.8 0 25.6 12.8 25.6 25.6s-6.4 25.6-19.2 25.6z"  horiz-adv-x="1024" />

    
    <glyph glyph-name="zhanghao" unicode="&#58900;" d="M512 137.2c182.5 0 330.9 148.4 330.9 330.9C842.9 650.6 694.4 799 512 799S181.1 650.6 181.1 468.1c0-182.5 148.4-330.9 330.9-330.9z m0 604.6c150.9 0 273.7-122.8 273.7-273.7S662.9 194.4 512 194.4 238.3 317.2 238.3 468.1 361.1 741.8 512 741.8zM512 269.1c70.1 0 119.2 49.8 121.3 51.9 11 11.3 10.7 29.3-0.5 40.3-11.2 11-29.3 10.9-40.4-0.3-0.3-0.3-34.9-34.6-80.3-34.6-45.2 0-79.7 34-80.3 34.6-11 11.2-29.1 11.5-40.4 0.5-11.3-11-11.6-29.1-0.6-40.5 2-2.1 51.1-51.9 121.2-51.9z m358-250.4c-4.9 4.5-123.8 110.8-358 110.8S158.9 23.3 154 18.7c-11.6-10.6-12.4-28.6-1.8-40.3 10.6-11.7 28.7-12.6 40.4-2 1.1 1 108.9 95.9 319.5 95.9s318.4-94.9 319.4-95.8c5.5-5 12.4-7.5 19.3-7.5 7.7 0 15.5 3.1 21.1 9.3 10.6 11.7 9.8 29.8-1.9 40.4z"  horiz-adv-x="1024" />

    
    <glyph glyph-name="mima" unicode="&#58901;" d="M819.229994-127.99999H204.873006A102.409998 102.409998 0 0 0 102.410008-25.640992V435.255999c0 56.581999 45.879999 102.307998 102.461998 102.307998H819.179994c56.631999 0 102.511998-45.725999 102.511998-102.307998V-25.639992A102.409998 102.409998 0 0 0 819.230994-127.99999z m51.205999 563.255989a51.153999 51.153999 0 0 1-51.204999 51.102999H204.870006a51.204999 51.204999 0 0 1-51.255999-51.102999V-25.639992c0-28.315999 22.991-51.255999 51.256999-51.255999H819.179994c28.264999 0 51.255999 22.94 51.255999 51.255999V435.255999zM640.115997 179.180004h-256.129994a25.653999 25.653999 0 0 0 0 51.255999h256.076994a25.653999 25.653999 0 0 0 0.051-51.255999zM512.05 844.896991c-113.111998 0-204.819996-91.861998-204.819996-204.819996h-51.256999A256.025995 256.025995 0 0 0 512.051 895.99999a256.025995 256.025995 0 0 0 256.076995-255.922995h-51.255999c0 112.957998-91.708998 204.819996-204.819996 204.819996z"  horiz-adv-x="1024" />

    
    <glyph glyph-name="yanzhengma" unicode="&#58902;" d="M870.195 608a25.6 25.6 0 1 0-50.816 0h-0.179v57.6a25.6 25.6 0 0 1-25.6 25.6H230.4a25.6 25.6 0 0 1-25.6-25.6V608h-0.205a25.6 25.6 0 1 0-50.816 0h-0.179v83.2a51.2 51.2 0 0 0 51.2 51.2h614.4a51.2 51.2 0 0 0 51.2-51.2V608h-0.205z m0-470.4h0.205v-60.8a51.2 51.2 0 0 0-51.2-51.2H204.8a51.2 51.2 0 0 0-51.2 51.2v60.8h0.205a25.6 25.6 0 1 0 50.816 0h0.179V96a25.6 25.6 0 0 1 25.6-25.6h563.2a25.6 25.6 0 0 1 25.6 25.6v41.6h0.205a25.6 25.6 0 1 0 50.816 0zM262.963 344.448a42.163 42.163 0 1 0 0 84.352 42.163 42.163 0 0 0 0-84.326z m168.653 0a42.163 42.163 0 1 0 0 84.352 42.163 42.163 0 0 0 0-84.326z m168.678 0a42.163 42.163 0 1 0 0 84.352 42.163 42.163 0 0 0 0-84.326z m168.653 0a42.163 42.163 0 1 0 0 84.352 42.163 42.163 0 0 0 0-84.326z"  horiz-adv-x="1024" />

    
    <glyph glyph-name="gonghao" unicode="&#58903;" d="M968.872-128c-151.79 0.216-254.51 0.216-406.058 0.216v0.053H107.957c-54.244 0-97.17 35.65-106.6 88.735a121.206 121.206 0 0 0-1.294 20.237c0 230.69-0.108 505.571 0 736.26 0 53.436 32.713 95.984 83.696 105.712 20.264 3.853 41.66 3.341 62.489 2.048 18.539-1.024 31.096-18.755 29.722-37.644a34.761 34.761 0 0 0-34.222-31.447c-11.345-0.216-22.905 0-34.303-0.108-21.827-0.215-36.674-14.901-36.674-36.512v-741.408c0-20.937 14.497-35.461 35.569-36.135 1.94-0.108 3.907 0 5.847 0h854.179c9.216 0 17.973 0.782 25.788 6.306a34.694 34.694 0 0 1 15.305 26.73c0.216 2.426 0.108 4.851 0.108 7.25V715.668c0 26.893-13.689 40.501-40.986 40.501-9.997 0-19.913-0.108-29.883 0a34.572 34.572 0 0 0-34.438 31.123c-1.617 19.105 10.482 36.513 29.237 37.833 22.69 1.725 45.81 3.207 68.256-2.83 47.075-12.69 78.172-53.65 78.172-103.204v-739.225c0-62.327-46.079-107.867-109.053-107.867zM778.899 182.209c29.695 0 59.255 0.215 88.95-0.108 16.815-0.216 30.504-12.665 33.28-29.183a34.222 34.222 0 0 0-22.124-38.184c-4.5-1.59-9.431-2.317-14.281-2.317-57.64-0.108-115.197-0.108-172.89-0.108-21.153 0-36.566 15.01-36.566 35.03 0 19.995 15.413 34.762 36.701 34.762 29.022 0.215 58.016 0.108 86.93 0.108z m87.819 175.476c-41.12-0.485-82.187-0.216-123.308-0.216-40.85 0-81.729-0.27-122.553 0.108-25.464 0.108-42.117 23.093-34.087 46.186a34.653 34.653 0 0 0 32.686 23.551c82.43 0.162 164.86 0.27 247.235 0 19.536 0 34.76-15.413 35.003-34.518a34.18 34.18 0 0 0-10.024-24.872 34.923 34.923 0 0 0-24.952-10.24z m-123.335-0.216h0.054-0.054z m87.496 361.3a33.845 33.845 0 0 0-29.426-32.148c-17.515-2.29-33.171 6.898-38.587 22.985a40.555 40.555 0 0 0-2.075 12.8c-0.108 45.647-0.108 91.403-0.108 137.05 0 21.045 15.198 36.513 35.354 36.405 19.994 0 34.842-14.901 35.084-35.812 0.27-22.985 0-46.025 0-68.902 0 0.161 0 0.161-0.108 0.161 0-24.144 0.485-48.45-0.134-72.54z m-176.77 37.617c-46.644-0.216-44.111-0.108-90.62-0.108-47.184 0-94.368-0.108-141.551 0.108a34.6 34.6 0 0 0-33.845 27.593 34.68 34.68 0 0 0 19.914 38.884 40.04 40.04 0 0 0 15.548 3.206c93.235 0.216 137.346 0.216 230.554 0.108 20.48 0 36.27-15.09 36.459-34.545 0.27-19.887-15.413-35.112-36.459-35.246z m-374.907-70.007c-16.14 1.05-30.072 12.826-31.77 28.86-1.374 12.664-0.943 25.625-1.05 38.29-0.216 12.584-0.109 25.195-0.109 37.78 0 22.715-0.215 45.377 0.108 68.174C246.758 881.768 262.387 896.75 283.783 895.97c15.898-0.728 29.722-12.827 32.336-28.51 0.485-3.099 0.835-6.305 0.835-9.377 0-44.731 0.108-89.436 0-134.14 0-23.255-16.006-38.938-37.752-37.563zM265.81 321.63c-17.866 30.072-23.713 63.594-15.98 100.538 7.141 33.98 25.357 61.438 53.328 82.267 55.806 41.525 132.792 36.028 182.994-12.368 50.39-48.8 59.632-135.972 4.257-195.928 56.669-34.492 91.484-81.621 103.69-142.413 4.258-21.207-12.287-40.932-34.114-40.932-16.518 0-30.988 11.345-34.357 27.378-14.55 69.36-76.663 109.565-129.37 111.693-40.528 1.725-75.855-10.266-105.307-37.725a135.891 135.891 0 0 1-41.552-73.672 34.734 34.734 0 0 0-34.087-27.781h-0.728c-21.826 0-38.399 19.724-34.141 40.904 10.105 50.283 35.677 91.376 76.744 123.82a34.141 34.141 0 0 1 8.623 44.22z m71.435 21.423a69.872 69.872 0 0 1 49.555-20.264c33.629-2.156 70.707 26.785 70.815 69.28 0.135 38.64-31.339 70.087-70.303 70.276-18.728 0-36.702-7.41-49.878-20.587a69.307 69.307 0 0 1-20.48-49.528 68.606 68.606 0 0 1 20.29-49.177z"  horiz-adv-x="1077" />

    
    <glyph glyph-name="prevpage-copy" unicode="&#59573;" d="M273.61724 674.997584L273.61724 674.997584c-8.848529 8.861832-15.504112 18.832927-19.91763201 29.913287-4.437056 11.067057-6.655584 22.47180399-6.65558399 34.175357 0 11.715833 2.218528 23.269983 6.65558399 34.662451s11.06808 21.511943 19.91763201 30.374798c17.749246 17.723663 38.937824 26.585495 63.641459 26.585495 24.653493 0 45.89221301-8.861832 63.591317-26.585495l352.232227-355.086228c8.87411101-7.603165 15.205307-17.249873 18.995633-28.966729 3.813862-11.704576 5.384637-23.8942 4.735861-36.54431099-0.597611-12.663414-3.464915-25.152866-8.525164-37.49189201-5.060249-12.364609-12.014638-22.959921-20.889773-31.80845L400.850016-35.16361500000005c-17.723663-18.371416-38.937824-27.545356-63.591317-27.545356-24.704658 0-45.893236 9.17394-63.641459 27.545356-8.848529 8.849552-15.504112 18.821671-19.91763201 29.888727-4.437056 11.06808-6.65558399 22.48613-6.65558399 34.17638 0 11.715833 2.218528 23.282263 6.655584 34.649148 4.41352 11.392468 11.06808 21.537526 19.917632 30.41266l286.74677 290.511513L273.61724 674.997584 273.61724 674.997584zM273.61724 674.997584"  horiz-adv-x="1024" />

    
    <glyph glyph-name="huaban" unicode="&#58908;" d="M339.456 512a204.8 172.544 90 1 1 345.088 0 204.8 172.544 90 1 1-345.088 0ZM358.4 318.464h307.2a180.224 180.224 0 0 0 179.2-180.224v-87.04h-665.6v87.04A180.224 180.224 0 0 0 358.4 318.464zM747.008 650.752h97.792v-29.184h-97.792zM747.008 563.2h97.792v-29.184h-97.792zM747.008 475.136h97.792v-29.184h-97.792zM637.952 372.224s-74.24-51.2-20.48-102.4H552.96v96.768zM386.56 372.224s74.24-51.2 20.48-102.4h64.512v96.768z"  horiz-adv-x="1024" />

    
    <glyph glyph-name="huabanfuben" unicode="&#58909;" d="M784.896 368.128v24.576l65.024 37.888-115.712 198.144-65.024-39.936a272.384 272.384 0 0 1-42.496 24.576V691.2H397.312v-75.776a272.384 272.384 0 0 1-42.496-26.624l-65.024 39.936L175.104 430.08l65.024-37.888v-49.152l-65.024-37.888 114.688-198.656 65.536 37.888a272.384 272.384 0 0 1 42.496-24.576v-75.264h229.376v75.776a272.384 272.384 0 0 1 42.496 24.576l65.536-37.888 114.688 198.656-65.024 37.888c-0.512 8.192 0 16.384 0 24.576zM512 206.336a161.28 161.28 0 1 0 161.28 161.28A161.28 161.28 0 0 0 512 206.336z"  horiz-adv-x="1024" />

    
    <glyph glyph-name="huaban1" unicode="&#58910;" d="M339.456 512a204.8 172.544 90 1 1 345.088 0 204.8 172.544 90 1 1-345.088 0ZM358.4 318.464h307.2a180.224 180.224 0 0 0 179.2-180.224v-87.04h-665.6v87.04A180.224 180.224 0 0 0 358.4 318.464zM747.008 650.752h97.792v-29.184h-97.792zM747.008 563.2h97.792v-29.184h-97.792zM747.008 475.136h97.792v-29.184h-97.792zM637.952 372.224s-74.24-51.2-20.48-102.4H552.96v96.768zM386.56 372.224s74.24-51.2 20.48-102.4h64.512v96.768z"  horiz-adv-x="1024" />

    
    <glyph glyph-name="huabanfuben1" unicode="&#58911;" d="M880.128 441.856a71.168 71.168 0 0 0 19.968-4.096V567.296a58.88 58.88 0 0 1-58.368 58.368H240.128a58.88 58.88 0 0 1-58.88-58.368V435.2a73.728 73.728 0 1 0 0-134.656v-131.584a58.88 58.88 0 0 1 58.368-58.368h602.112a58.88 58.88 0 0 1 58.368 58.368v129.536a71.168 71.168 0 0 0-19.968-4.096 73.728 73.728 0 1 0 0 147.456zM691.2 384v-37.376h-93.184v-30.208h93.184v-37.376h-93.184v-51.2H503.808v51.2H409.6v37.376h94.208v30.208H409.6V384h76.288l-102.4 125.952h95.744l75.264-112.128 11.264 17.408 61.952 94.208h93.184L614.4 384z"  horiz-adv-x="1024" />

    
    <glyph glyph-name="huabanfuben2" unicode="&#58912;" d="M605.696 671.232L787.456 486.4h-136.704a45.056 45.056 0 0 0-45.056 45.056zM610.816 446.976a41.472 41.472 0 0 0-41.984 39.424V699.392H282.624a22.016 22.016 0 0 1-22.016-22.016v-604.16a28.16 28.16 0 0 1 28.16-28.16h481.792a29.696 29.696 0 0 1 29.696 29.696v373.76z m121.344-280.064H338.432a22.016 22.016 0 0 0 0 44.032h393.728a22.016 22.016 0 0 0 0-44.032z m0 110.592H338.432a22.016 22.016 0 0 0 0 44.032h393.728a22.016 22.016 0 0 0 0-44.032z"  horiz-adv-x="1024" />

    
    <glyph glyph-name="peisong" unicode="&#58915;" d="M585.536 695.424c-0.32 7.616-3.008 14.336-7.616 20.352-8.576 10.944-20.16 14.336-33.6 14.272-156.864-0.128-313.728-0.064-470.528-0.064-2.688 0-5.312-0.128-7.936-0.32-17.6-1.216-31.872-15.424-33.216-33.024a105.247 105.247 0 0 1-0.384-9.024c0-167.808 0.192-335.616-0.256-503.488-0.128-27.136 17.344-44.096 43.136-42.88 20.16 1.024 40.512 0.192 60.736 0.192h6.464c10.56 64.192 60.736 107.2 114.368 111.04 79.872 5.824 126.08-35.84 146.24-110.784 0.064 0 0.64-0.192 1.216-0.192 48.256 0 96.512-0.128 144.768 0.192 5.504 0 11.456 1.344 16.32 3.84 14.976 7.424 20.544 20.352 20.544 36.736-0.192 168.96-0.128 337.92-0.128 506.88 0 2.048 0 4.16-0.128 6.272zM991.424 370.24c-3.84 25.664-14.912 48.256-29.952 68.992-13.44 18.496-27.328 36.736-41.28 54.848-17.792 23.296-35.712 46.528-54.08 69.376-11.136 13.888-26.176 19.584-44.032 19.52-52.736-0.192-105.536-0.064-158.4-0.128-4.48-0.064-9.152-0.384-13.44-1.536-17.472-4.672-27.264-18.56-27.264-38.336v-361.6c0-2.432 0-4.864 0.256-7.296 1.856-18.24 18.688-33.344 36.16-31.936 5.184 31.744 19.776 58.752 44.224 79.936 24.768 21.376 53.824 31.808 86.464 31.808 53.952 0.128 116.608-38.656 128.896-112.448 7.616 0 15.36-0.064 23.04 0.064 6.976 0.128 14.208-0.448 20.928 1.024 17.92 3.84 28.864 18.368 28.864 37.632 0.064 60.352 0 120.768 0 181.056 0.192 2.944 0.064 6.08-0.384 9.024z m-257.664-8.064V509.568h6.592c25.856 0 51.84-0.32 77.76 0.128 9.216 0.192 16-3.392 20.928-10.176 27.2-37.248 54.272-74.624 80.896-112.32 4.416-6.336 6.72-14.208 9.92-21.44 0.448-0.896 0.064-2.176 0.064-3.584H733.76zM272.256 207.616c-47.168 0.128-85.248-37.568-85.312-84.736-0.064-46.976 37.952-84.928 85.12-84.928 47.104 0 85.312 38.144 85.184 85.056-0.064 46.656-37.952 84.416-84.992 84.608zM789.568 207.616c-46.976 0.448-85.568-37.504-85.824-84.416-0.256-46.848 37.76-84.928 84.992-85.248 46.784-0.256 84.864 37.248 85.312 84.16 0.576 46.976-37.056 85.056-84.48 85.504z"  horiz-adv-x="1024" />

    
    <glyph glyph-name="zhinanzhen" unicode="&#58919;" d="M507.449 454.542c-36.409 0-68.267-29.582-68.267-68.266 0-36.41 29.582-68.267 68.267-68.267s68.267 29.582 68.267 68.267c0 36.408-29.583 68.266-68.267 68.266zM507.449 832.284c-245.76 0-446.009-200.248-446.009-446.008s200.249-446.01 446.009-446.01 446.009 200.25 446.009 446.01c2.275 245.76-197.974 446.008-446.01 446.008z m202.524-266.24l-91.022-277.617c-2.275-6.827-9.102-13.654-15.929-15.93l-277.618-91.021c-6.826-2.276-15.928-2.276-18.204 2.275-4.551 4.551-6.827 11.378-2.276 18.205l91.023 277.617c2.275 6.827 9.102 13.654 15.929 15.93l277.617 91.021c6.827 2.276 15.93 2.276 18.205-2.275 4.55-4.551 6.826-11.378 2.275-18.205z"  horiz-adv-x="1024" />

    
    <glyph glyph-name="zhifu" unicode="&#58922;" d="M958.507 739.62c-83.961 0-139.934 55.974-139.934 139.934L510.718 851.566 202.86 879.554c0-83.96-55.972-139.934-139.933-139.934-55.974-643.698 447.79-867.59 447.79-867.59s503.763 223.892 447.789 867.59z m-354.74-279.47h111.349v-99.657h-146.94v-43.426h146.94v-100.43h-146.94v-120.715H453.09V216.637h-152.34v100.43h152.34v43.425h-152.34v99.657h115.374l-158.51 272.284h131.277S489.565 546.574 512.49 500.645c7.315 14.775 124.463 231.788 124.463 231.788H763.82L603.767 460.15z"  horiz-adv-x="1024" />

    
    <glyph glyph-name="shouhou" unicode="&#58923;" d="M45.966 679.186c0 8.56 5.375 20.117 11.698 25.523L263.449 881.103V632.55L498.097 515.22c7.69-3.837 20.04-3.884 27.806 0L760.551 632.55V881.103l205.785-176.394c6.463-5.53 11.698-16.964 11.698-25.523v-435.027c0-8.56-5.375-20.117-11.698-25.523L760.551 42.242v-124.276c0-17.165-13.825-31.069-31.1-31.069H294.55a31.007 31.007 0 0 0-31.1 31.07V42.241L57.664 218.636c-6.463 5.53-11.698 16.963-11.698 25.523V679.186z m279.62-466.065c0-17.274 13.95-31.069 31.147-31.069h310.534a31.1 31.1 0 0 1 31.147 31.069c0 17.274-13.95 31.069-31.147 31.069H356.733a31.1 31.1 0 0 1-31.147-31.07z"  horiz-adv-x="1024" />

    
    <glyph glyph-name="guanyuwomen" unicode="&#58925;" d="M1002.854 71.474c2.74-9.012 4.7-20.375 6.267-33.692 1.57-12.928 2.353-26.643 2.353-39.962 0-13.32-0.783-26.25-3.136-38.006-1.956-11.752-5.092-20.766-9.011-26.639-2.742-3.919-10.186-7.837-23.116-11.755-12.928-3.918-28.992-7.442-47.798-10.578-19.197-3.525-40.356-6.27-63.467-9.403s-46.23-5.486-69.735-7.446c-23.508-1.957-45.841-3.524-67.781-5.092-21.547-1.174-40.746-1.957-57.201-1.957-16.456 0-35.259 0.783-56.809 1.957-21.159 1.57-43.488 3.135-66.601 5.092-23.117 1.959-45.841 4.313-68.171 6.271-22.332 2.35-43.097 5.093-61.901 7.837-18.806 3.135-34.478 5.879-47.406 9.011-12.928 3.135-20.764 5.878-24.29 8.619-5.092 4.702-9.402 18.414-12.928 41.53-3.135 23.116-2.35 52.891 3.134 88.935 3.135 21.155 11.755 36.828 25.073 47.404 13.324 10.579 29.386 19.197 47.8 25.858 18.411 6.661 37.219 12.146 56.808 17.24 19.59 5.094 36.829 12.147 51.716 22.334 11.753 7.836 20.764 15.279 27.032 21.547 6.27 6.661 10.578 13.321 13.713 19.59 3.134 6.66 4.31 13.71 4.31 20.766 0 7.051-0.393 15.279-1.178 24.682-1.568 12.927-5.878 23.507-13.711 31.342-7.837 7.442-16.456 14.887-25.858 22.331-4.701 3.919-8.619 9.403-12.146 16.847-3.526 7.051-6.659 14.495-9.403 21.548-2.742 7.836-5.093 16.845-7.837 26.638-3.919 1.568-7.837 3.526-11.755 5.878-3.525 2.741-6.659 6.66-10.184 11.753-3.917 5.092-7.053 12.538-10.185 21.547-3.525 9.012-4.702 18.023-3.918 26.25 0.783 8.227 2.35 14.888 5.094 20.373 2.74 6.659 6.267 12.538 10.575 17.631-0.39 21.154 0.393 42.703 3.135 64.251 2.741 18.413 6.659 37.611 12.146 57.982 5.485 19.982 14.105 38.788 26.249 56.026 10.578 15.671 22.332 28.601 35.652 38.395 12.928 9.796 26.639 17.631 40.352 23.117 13.715 5.484 27.816 9.403 41.532 11.362 13.71 1.957 27.031 3.133 39.567 3.133 33.693 0 63.467-7.051 90.111-20.764 26.25-13.713 45.838-28.601 58.377-44.27 14.495-18.023 25.074-37.611 32.127-59.944 7.051-21.939 11.751-42.705 15.276-61.51 3.525-22.332 4.703-44.663 3.921-66.994 3.133-2.742 6.27-6.27 9.011-10.579 1.958-3.918 3.917-9.012 5.484-15.281 1.567-6.269 1.962-14.104 0.393-23.115-1.567-11.755-3.918-21.546-7.838-28.601-3.918-7.051-7.837-12.928-11.752-16.849-4.702-4.701-9.793-7.442-15.67-9.011-2.744-9.793-5.095-18.806-7.838-26.639-2.742-7.053-5.878-14.495-9.795-21.547-3.918-7.051-8.228-12.538-12.538-15.671-5.092-4.702-10.184-8.619-14.495-11.753-4.309-3.526-7.836-6.66-11.362-10.185-3.526-3.526-6.269-7.837-8.227-12.146-2.351-4.701-4.31-10.184-5.484-16.847-1.175-8.619-1.959-17.238-1.567-26.249 0.391-9.011 2.35-17.631 6.269-25.858 3.918-8.619 10.183-16.849 19.196-24.683 9.011-7.836 21.156-14.888 37.22-20.764 13.713-5.878 28.992-10.97 45.838-15.279a468.343 468.343 0 0 0 48.579-15.281c15.671-5.877 29.387-13.713 41.532-22.724 12.142-11.758 20.76-23.513 26.248-38.008M475.905 253.262c-1.567-7.445-3.134-12.93-5.093-16.849s-6.659-8.228-13.711-12.928c-17.239-10.578-35.652-19.196-55.241-25.467-19.98-6.659-38.787-13.711-56.809-21.547-18.02-7.837-33.692-18.412-47.404-31.342-13.321-12.927-21.94-30.951-25.073-54.851-1.175-7.445-1.959-14.496-2.353-21.155-0.39-7.051-0.783-13.32-1.565-19.197-0.785-1.174-1.567-2.351-1.959-3.524-0.39-1.178-1.174-1.961-1.959-3.526-25.858 1.958-51.714 4.309-77.963 7.05-26.25 2.741-50.54 5.878-72.48 9.011-21.94 3.526-40.746 6.662-56.026 9.796-15.281 3.132-24.68 6.658-28.601 9.793-5.877 4.701-10.185 18.413-13.321 41.529-3.133 23.116-1.957 52.891 3.526 89.719 3.135 20.373 11.755 36.044 25.075 47.013 13.711 10.579 29.384 19.59 48.187 25.468 18.413 6.27 37.221 12.143 56.809 17.239 19.591 5.092 36.829 12.538 51.716 21.546 11.756 7.839 20.766 15.281 27.425 21.549 6.267 6.659 10.575 13.319 13.32 20.372 2.742 7.053 3.918 14.106 3.918 21.155 0 7.053-0.391 15.282-1.175 23.508-1.175 13.32-5.877 23.508-13.32 31.342-7.443 7.445-16.062 15.281-25.074 23.116-5.093 3.526-9.795 8.619-13.321 15.671-3.526 7.051-6.659 14.495-9.403 21.546-2.742 7.837-5.093 16.849-7.837 26.639-3.918 1.57-7.837 3.526-11.753 5.879-3.525 2.742-6.661 6.659-10.186 11.752-3.526 5.093-7.051 12.539-10.185 21.547-3.135 9.011-4.702 18.023-3.917 25.858 0.782 8.226 2.35 15.281 5.092 21.156 2.741 7.05 6.269 13.319 10.579 17.629-0.786 21.155 0.39 42.703 3.134 64.252 2.742 18.022 7.051 36.827 12.928 57.201 5.876 20.375 14.889 38.784 26.638 55.24 10.579 15.671 22.334 28.6 35.653 38.395 12.927 9.793 26.248 17.629 39.962 23.114 13.319 5.486 27.032 9.404 41.135 11.363 13.711 1.958 27.425 3.133 40.356 3.133 32.909 0 62.685-7.051 88.935-20.764s46.231-28.601 59.551-44.662c8.619-10.971 14.103-21.548 16.062-30.951 2.349-9.404 5.485-20.764 9.402-33.303-12.537-7.051-25.857-18.022-39.961-32.126-14.106-14.105-26.25-28.601-37.219-43.097-12.928-18.411-23.115-38.787-29.775-61.116-6.659-22.332-11.362-43.097-14.889-62.296-3.134-23.114-4.7-45.837-4.7-68.953-5.093-5.877-9.404-12.538-11.755-19.588-2.744-6.661-4.309-14.498-5.093-23.117-0.783-9.01 0.785-18.413 3.917-28.992 3.526-11.362 7.051-19.981 10.579-25.465 3.918-5.878 7.445-10.579 10.972-13.714 3.916-3.917 7.837-6.66 11.752-7.837 2.744-10.578 5.093-20.372 7.837-29.773 2.741-7.836 5.877-16.061 9.403-24.29 3.919-8.227 8.228-14.106 13.321-18.414 4.702-3.918 8.228-7.05 10.579-9.792 2.742-2.744 4.702-5.094 6.659-7.446 1.568-2.35 2.742-5.484 3.135-9.402-0.782-2.35 0-7.442 1.568-14.103z"  horiz-adv-x="1024" />

    


  </font>
</defs>
</svg>
